<svg width="512" height="424" viewBox="0 0 512 424" fill="none" xmlns="http://www.w3.org/2000/svg">
<path d="M511.391 176.022C504.326 100.795 437.617 45.5436 362.396 52.6087L248.891 63.2666L207.859 67.1071C197.335 68.1291 186.931 71.8742 177.739 78.514L58.1276 164.882C46.308 173.49 35.8786 185.151 28.7119 199.021C4.08249 246.667 22.7386 305.264 70.3915 329.899C118.038 354.529 176.634 335.873 201.27 288.22L210.906 269.576C221.355 249.365 249.577 247.594 262.476 266.339C289.701 305.714 336.929 329.81 387.984 325.018C463.199 317.953 518.457 251.25 511.391 176.022Z" fill="url(#paint0_linear_440_980)" fill-opacity="0.32"/>
<path d="M321.262 311.897H153.966C148.32 311.897 143.739 307.323 143.739 301.671V269.665C143.739 264.02 148.314 259.439 153.966 259.439H321.262C326.907 259.439 331.488 264.014 331.488 269.665V301.671C331.482 307.323 326.907 311.897 321.262 311.897Z" fill="#164E63" stroke="#22D3EE" stroke-width="0.634779"/>
<path d="M173.523 300.624C181.782 300.624 188.478 293.928 188.478 285.669C188.478 277.409 181.782 270.713 173.523 270.713C165.263 270.713 158.567 277.409 158.567 285.669C158.567 293.928 165.263 300.624 173.523 300.624Z" stroke="#22D3EE" stroke-width="1.90434" stroke-miterlimit="10" stroke-linecap="round" stroke-linejoin="round"/>
<path d="M310.547 282.266H206.716C204.101 282.266 201.98 280.146 201.98 277.531C201.98 274.916 204.101 272.796 206.716 272.796H310.547C313.162 272.796 315.282 274.916 315.282 277.531C315.282 280.153 313.162 282.266 310.547 282.266Z" stroke="#22D3EE" stroke-width="1.90434" stroke-miterlimit="10" stroke-linecap="round" stroke-linejoin="round"/>
<path d="M310.547 298.542H206.716C204.101 298.542 201.98 296.422 201.98 293.807C201.98 291.191 204.101 289.071 206.716 289.071H310.547C313.162 289.071 315.282 291.191 315.282 293.807C315.282 296.422 313.162 298.542 310.547 298.542Z" stroke="#22D3EE" stroke-width="1.90434" stroke-miterlimit="10" stroke-linecap="round" stroke-linejoin="round"/>
<path d="M176.816 282.679C176.816 280.86 175.34 279.384 173.521 279.384C171.709 279.384 170.227 280.859 170.227 282.679C170.227 284.498 171.702 285.973 173.521 285.973C175.34 285.973 176.816 284.498 176.816 282.679ZM168.957 282.679C168.957 280.156 170.999 278.115 173.521 278.115C176.044 278.115 178.085 280.156 178.085 282.679C178.085 285.201 176.044 287.243 173.521 287.243C170.999 287.243 168.957 285.201 168.957 282.679Z" fill="#22D3EE" stroke="#22D3EE" stroke-width="0.634779"/>
<path d="M166.35 298.282V290.106H180.696V298.39" stroke="#22D3EE" stroke-width="1.90434" stroke-miterlimit="10" stroke-linecap="round" stroke-linejoin="round"/>
<path d="M321.262 248.445H153.966C148.32 248.445 143.739 243.871 143.739 238.219V206.213C143.739 200.567 148.314 195.987 153.966 195.987H321.262C326.907 195.987 331.488 200.561 331.488 206.213V238.218C331.482 243.871 326.907 248.445 321.262 248.445Z" fill="#164E63" stroke="#22D3EE" stroke-width="0.634779"/>
<path d="M173.523 237.171C181.782 237.171 188.478 230.475 188.478 222.216C188.478 213.956 181.782 207.26 173.523 207.26C165.263 207.26 158.567 213.956 158.567 222.216C158.567 230.475 165.263 237.171 173.523 237.171Z" stroke="#22D3EE" stroke-width="1.90434" stroke-miterlimit="10" stroke-linecap="round" stroke-linejoin="round"/>
<path d="M310.547 218.813H206.716C204.101 218.813 201.98 216.693 201.98 214.078C201.98 211.463 204.101 209.343 206.716 209.343H310.547C313.162 209.343 315.282 211.463 315.282 214.078C315.282 216.7 313.162 218.813 310.547 218.813Z" stroke="#22D3EE" stroke-width="1.90434" stroke-miterlimit="10" stroke-linecap="round" stroke-linejoin="round"/>
<path d="M310.547 235.083H206.716C204.101 235.083 201.98 232.963 201.98 230.347C201.98 227.732 204.101 225.612 206.716 225.612H310.547C313.162 225.612 315.282 227.732 315.282 230.347C315.282 232.969 313.162 235.083 310.547 235.083Z" stroke="#22D3EE" stroke-width="1.90434" stroke-miterlimit="10" stroke-linecap="round" stroke-linejoin="round"/>
<path d="M176.816 219.227C176.816 217.407 175.34 215.932 173.521 215.932C171.709 215.932 170.227 217.407 170.227 219.227C170.227 221.046 171.702 222.521 173.521 222.521C175.34 222.521 176.816 221.046 176.816 219.227ZM168.957 219.227C168.957 216.704 170.999 214.662 173.521 214.662C176.044 214.662 178.085 216.704 178.085 219.227C178.085 221.749 176.044 223.791 173.521 223.791C170.999 223.791 168.957 221.749 168.957 219.227Z" fill="#22D3EE" stroke="#22D3EE" stroke-width="0.634779"/>
<path d="M166.35 234.829V226.653H180.696V234.937" stroke="#22D3EE" stroke-width="1.90434" stroke-miterlimit="10" stroke-linecap="round" stroke-linejoin="round"/>
<path d="M394.777 255.63C399.65 255.63 403.6 251.68 403.6 246.807C403.6 241.934 399.65 237.983 394.777 237.983C389.904 237.983 385.953 241.934 385.953 246.807C385.953 251.68 389.904 255.63 394.777 255.63Z" fill="#06B6D4"/>
<path d="M421.507 206.974C421.507 206.974 416.308 209.031 415.222 214.128C414.492 217.55 426.166 231.356 426.166 231.356L421.507 206.974Z" fill="#06B6D4"/>
<path d="M457.34 206.841C457.34 206.841 462.78 209.037 463.866 214.128C464.596 217.55 452.922 231.356 452.922 231.356L457.34 206.841Z" fill="#06B6D4"/>
<path d="M418.764 206.492V218.14C418.764 220.159 419.119 222.99 420.224 225.859C420.262 225.961 420.3 226.068 420.344 226.17C422.515 231.578 427.378 237.05 437.521 237.444C437.712 237.456 437.909 237.456 438.112 237.456C438.315 237.463 438.518 237.456 438.715 237.444C448.865 237.05 453.727 231.578 455.898 226.157C457.085 223.187 457.472 220.235 457.472 218.134V206.473C457.472 198.278 452.489 190.756 444.771 188.001C442.72 187.271 440.53 186.871 438.277 186.852C435.985 186.833 433.763 187.214 431.675 187.931C427.092 189.511 423.448 192.768 421.22 196.862C419.633 199.763 418.764 203.07 418.764 206.492Z" fill="#06B6D4"/>
<path d="M418.764 206.492V218.14C418.764 220.159 419.119 222.99 420.224 225.859C421.201 226.24 422.274 226.449 423.385 226.449H439.451C444.275 226.449 448.198 222.533 448.198 217.708V205.343C448.198 200.512 444.282 196.602 439.451 196.602H423.385C422.636 196.602 421.906 196.697 421.214 196.875C419.633 199.763 418.764 203.07 418.764 206.492Z" fill="#FFF7EE"/>
<path d="M436.239 218.857C435.77 219.251 433.738 220.869 430.749 220.736C428.21 220.622 426.508 219.308 425.981 218.857" stroke="#083344" stroke-width="1.90434" stroke-miterlimit="10" stroke-linecap="round" stroke-linejoin="round"/>
<path d="M422.465 315.001C424.318 318.911 426.965 321.362 429.555 322.891C433.916 325.469 438.112 325.469 438.112 325.469V325.335L438.131 325.469C438.131 325.469 448.814 325.469 453.778 314.995C456.533 309.199 466.867 266.529 465.572 255.694C464.271 244.864 452.134 239.805 438.118 239.805C435.941 239.805 433.808 239.932 431.751 240.173C420.598 241.519 411.768 246.553 410.67 255.7C409.375 266.536 419.71 309.206 422.465 315.001Z" fill="#06B6D4"/>
<path d="M457.466 255.116L450.027 303.366C450.027 303.366 448.509 314.779 443.958 319.115" stroke="#083344" stroke-width="1.90434" stroke-miterlimit="10" stroke-linecap="round" stroke-linejoin="round"/>
<path d="M438.938 214.738C441.09 214.738 442.835 212.993 442.835 210.84C442.835 208.688 441.09 206.943 438.938 206.943C436.785 206.943 435.04 208.688 435.04 210.84C435.04 212.993 436.785 214.738 438.938 214.738Z" stroke="#083344" stroke-width="1.90434" stroke-miterlimit="10" stroke-linecap="round" stroke-linejoin="round"/>
<path d="M422.992 214.737C425.145 214.737 426.89 212.992 426.89 210.84C426.89 208.687 425.145 206.942 422.992 206.942C420.84 206.942 419.095 208.687 419.095 210.84C419.095 212.992 420.84 214.737 422.992 214.737Z" stroke="#083344" stroke-width="1.90434" stroke-miterlimit="10" stroke-linecap="round" stroke-linejoin="round"/>
<path d="M457.466 206.485C457.466 206.485 456.469 186.864 438.264 186.864" stroke="#083344" stroke-width="1.90434" stroke-miterlimit="10" stroke-linecap="round" stroke-linejoin="round"/>
<path d="M422.014 226.449H441.565C445.234 226.449 448.205 223.478 448.205 219.809V204.822C448.205 200.055 444.339 196.196 439.578 196.196H424.451" stroke="#083344" stroke-width="1.90434" stroke-miterlimit="10" stroke-linecap="round" stroke-linejoin="round"/>
<path d="M114.933 164.641C115.377 164.197 135.049 147.781 135.049 147.781L137.119 157.1L120.697 181.799C120.068 181.653 115.581 180.536 113.448 176.181C111.658 172.512 112.235 168.005 114.933 164.641Z" fill="#FFC17C"/>
<path d="M81.5224 69.7988C89.9967 70.5478 96.6873 78.2223 97.43 86.5823C97.9822 92.7841 96.865 108.235 99.6834 112.24C100.49 113.389 101.118 115.604 99.5501 117.42C95.9954 121.546 91.1584 127.532 77.7137 127.024C62.6377 126.459 54.4935 114.221 55.4394 103.632C56.3788 93.0571 58.7085 67.7802 81.5224 69.7988Z" fill="#1F2937"/>
<path d="M162.889 114.354L172.499 112.729L174.575 117.61L167.027 124.117L162.889 114.354Z" fill="#E5E7EB"/>
<path d="M32.4366 185.722C32.4366 185.722 28.9262 179.362 33.6553 174.849C38.3844 170.335 42.1995 173.738 42.1995 173.738C42.1995 173.738 43.3484 173.738 43.2722 172.405C43.1961 171.072 42.4216 171.402 42.4216 171.402L52.5146 150.733C52.5146 150.733 59.0211 177.286 59.0973 178.911C59.1734 180.536 55.1807 188.896 55.1807 188.896L99.3296 189.709C99.3296 189.709 99.1836 175.217 99.2216 173.071C99.2597 170.926 100.148 166.565 100.148 166.565C100.148 166.565 104.954 185.5 113.015 186.313C117.008 186.757 120.709 181.799 120.709 181.799C120.709 181.799 113.904 180.174 112.501 174.106C111.098 168.044 114.939 164.641 114.939 164.641C114.939 164.641 104.808 135.13 103.252 132.026C101.697 128.922 101.253 127.291 98.6694 126.478C96.0795 125.666 89.0208 123.425 89.0208 123.425C89.0208 123.425 85.8024 131.728 79.3721 130.801C72.9355 129.874 67.3938 122.632 67.3938 122.632L50.1596 127.875C50.1596 127.875 46.0208 130.243 44.6878 134.534L30.2656 170.843C30.2656 170.843 26.787 178.314 28.6406 182.009C29.8086 184.091 32.4366 185.722 32.4366 185.722Z" fill="#E5E7EB"/>
<path d="M51.8463 187.163L42.1977 173.737C38.5477 172.493 34.6121 173.788 32.6569 176.733C31.0954 179.082 30.9938 182.192 32.3269 184.833C36.91 188.864 41.4994 192.895 46.0825 196.926L51.8463 187.163Z" fill="#FFC17C"/>
<path d="M78.9267 74.4006C87.2677 74.3117 92.9934 78.8631 94.1931 85.725C95.304 92.0919 92.676 100.338 92.676 103.873C92.676 108.926 85.4459 117.07 81.4023 117.07C76.6161 117.07 68.7639 111.357 66.4914 106.406C63.9459 100.858 62.2447 92.2823 65.5836 83.5541C67.5515 78.3933 74.077 74.4514 78.9267 74.4006Z" fill="#FFC17C"/>
<path d="M82.6844 117.166L82.6273 121.324L89.0068 123.431C89.0068 123.431 87.0644 131.366 79.3582 130.808C71.6456 130.255 67.3799 122.638 67.3799 122.638L70.8712 121.578C70.8712 121.578 71.0933 112.113 71.2584 112.113C71.4234 112.12 82.6844 117.166 82.6844 117.166Z" fill="#FFC17C"/>
<path d="M75.0552 80.7167C75.0552 80.7167 78.2228 95.1389 95.0063 95.8181C95.0063 95.8181 98.377 85.979 93.5907 79.9105C85.8655 70.1222 73.6396 74.9212 73.6396 74.9212L75.0552 80.7167Z" fill="#1F2937"/>
<path d="M75.5237 80.4503C75.5237 80.4503 74.0384 90.429 63.0567 95.5517C63.0567 95.5517 60.8032 87.7058 65.3482 81.5294C69.8615 75.3975 73.6384 74.9214 73.6384 74.9214L75.5237 80.4503Z" fill="#1F2937"/>
<path d="M99.3228 189.493L99.2149 173.077C99.2149 173.077 102.211 153.329 101.767 150.669C101.322 148.01 98.8848 136.469 98.8848 136.469" stroke="#9CA3AF" stroke-width="2.53912" stroke-miterlimit="10" stroke-linecap="round" stroke-linejoin="round"/>
<path d="M62.5682 124.929C62.5682 124.929 60.2005 136.463 65.6723 137.65C71.1441 138.837 79.1296 131.734 79.1296 131.734C79.1296 131.734 86.0804 141.053 90.9619 138.831C95.8433 136.609 93.1836 127.297 93.1836 127.297" stroke="#9CA3AF" stroke-width="2.53912" stroke-miterlimit="10" stroke-linecap="round" stroke-linejoin="round"/>
<path d="M86.0753 100.839C86.0753 100.839 87.7066 103.252 87.2242 104.28C86.6402 105.511 83.5869 105.226 83.5869 105.226" stroke="#1F2937" stroke-width="1.26956" stroke-miterlimit="10" stroke-linecap="round"/>
<path d="M76.5527 106.4C76.5527 106.4 77.2129 109.904 81.5548 110.545" stroke="#1F2937" stroke-width="1.26956" stroke-miterlimit="10" stroke-linecap="round"/>
<path d="M65.8188 103.702C65.8188 103.702 63.5971 102.833 61.7435 101.043C59.4202 98.802 57.6301 95.0758 59.7884 93.1905C62.1434 91.1275 64.6762 94.5743 64.6762 94.5743L65.8188 103.702Z" fill="#FFC17C"/>
<path d="M81.4035 117.064C69.9648 116.677 65.2801 103.499 65.2801 103.499C65.2801 103.499 63.1536 102.655 61.2874 100.89C59.2688 98.9859 57.7961 95.1328 59.9734 93.2539C63.2615 90.4227 65.9403 95.8311 65.9403 95.8311" stroke="#1F2937" stroke-width="1.26956" stroke-miterlimit="10" stroke-linecap="round"/>
<path d="M54.8749 189.493C54.8749 189.493 59.6104 181.653 59.0137 178.251C58.4234 174.849 52.5072 150.74 52.5072 150.74L42.4142 171.408C42.4142 171.408 42.4142 171.408 42.4142 171.402C42.4714 171.376 43.4553 172.773 43.1887 173.293C42.7888 174.074 39.8751 172.322 36.6822 173.071C36.5489 173.103 33.9971 173.738 32.3911 175.883C30.4804 178.441 30.5502 182.301 32.4292 185.722C32.4292 185.722 28.3222 183.501 28.1 179.844C27.8969 176.455 28.7665 174.779 29.8012 172.043C31.2675 168.164 44.3693 135.435 44.3693 135.435C45.112 131.734 48.2161 128.484 51.0282 127.596C53.8403 126.707 67.5959 122.568 67.5959 122.568C67.5959 122.568 72.1092 130.814 79.352 130.814C86.5948 130.814 89.0007 123.438 89.0007 123.438C89.0007 123.438 98.8016 126.117 100.281 126.929C101.76 127.742 105.645 137.689 105.645 137.689L114.925 164.648C114.925 164.648 111.446 168.05 112.297 173.078C113.719 181.501 120.689 181.806 120.689 181.806C119.026 185.024 115.991 186.338 113.44 186.389C105.232 186.567 100.274 166.863 100.274 166.863" stroke="#9CA3AF" stroke-width="2.53912" stroke-miterlimit="10" stroke-linecap="round" stroke-linejoin="round"/>
<path d="M74.8628 98.5286C75.6446 98.5286 76.2784 97.8949 76.2784 97.1131C76.2784 96.3313 75.6446 95.6975 74.8628 95.6975C74.081 95.6975 73.4473 96.3313 73.4473 97.1131C73.4473 97.8949 74.081 98.5286 74.8628 98.5286Z" fill="#1F2937"/>
<path d="M89.5464 99.0623C90.3282 99.0623 90.962 98.4285 90.962 97.6467C90.962 96.865 90.3282 96.2312 89.5464 96.2312C88.7646 96.2312 88.1309 96.865 88.1309 97.6467C88.1309 98.4285 88.7646 99.0623 89.5464 99.0623Z" fill="#1F2937"/>
<path d="M55.1747 188.902C55.1747 188.902 45.1198 208.13 46.8909 224.107C48.6682 240.085 51.9818 290.239 51.9818 290.239C51.9818 290.239 46.2942 300.427 47.1829 313.738C48.0716 327.049 50.7313 366.837 50.7313 366.837H59.0151C59.0151 366.837 67.0007 294.803 67.591 285.928C68.1814 277.054 77.0556 230.607 77.0556 230.607L86.8185 292.727C86.8185 292.727 84.1587 305.149 85.0411 316.69C85.9298 328.224 92.1379 367.574 92.1379 367.574H98.054C98.054 367.574 102.193 300.439 102.193 287.998C102.193 271.138 99.3109 189.715 99.3109 189.715L55.1747 188.902Z" fill="#1F2937"/>
<path d="M50.2722 203.375C47.0284 202.905 44.9781 199.617 45.7081 196.424C46.5206 192.895 47.8981 187.842 49.3962 186.534C51.7639 184.465 53.2429 183.132 57.3817 184.167L56.0487 186.941L59.4384 188.528C60.4667 189.01 60.9428 190.204 60.5238 191.257C60.1239 192.273 59.0194 192.825 57.9657 192.54L55.4583 191.86L56.9373 194.52C56.9373 194.52 55.3123 202.95 51.6115 203.394C51.1608 203.451 50.7102 203.439 50.2722 203.375Z" fill="#FFC17C"/>
<path d="M139.68 139.656L142.416 137.46C143.286 136.762 144.581 137.06 145.057 138.063C145.298 138.571 145.279 139.174 144.993 139.663L143.844 140.938L146.345 140.513L147.939 147.515L146.028 149.787L136.525 157.836L134.062 148.175L139.68 139.656Z" fill="#FFC17C"/>
<path d="M133.937 138.018L140.589 157.246L147.914 154.142L140.925 134.578L133.937 138.018Z" fill="#06B6D4"/>
<path d="M139.449 143.23C138.96 143.23 138.477 143.008 138.166 142.583C137.646 141.878 137.798 140.882 138.509 140.361L143.092 136.997C143.803 136.476 144.793 136.629 145.314 137.339C145.834 138.05 145.682 139.041 144.971 139.561L140.388 142.926C140.102 143.129 139.772 143.23 139.449 143.23Z" fill="#FFC17C"/>
<path d="M142.222 145.007C141.714 145.007 141.219 144.766 140.908 144.316C140.413 143.592 140.603 142.602 141.327 142.113L144.469 139.967C145.192 139.472 146.183 139.656 146.671 140.386C147.167 141.11 146.976 142.1 146.253 142.589L143.11 144.735C142.844 144.919 142.526 145.007 142.222 145.007Z" fill="#FFC17C"/>
<path d="M144.107 147.299C143.606 147.299 143.117 147.064 142.806 146.62C142.304 145.903 142.476 144.913 143.193 144.411L145.783 142.602C146.5 142.1 147.49 142.272 147.992 142.989C148.493 143.706 148.322 144.697 147.605 145.198L145.015 147.007C144.736 147.204 144.418 147.299 144.107 147.299Z" fill="#FFC17C"/>
<path d="M145.066 149.641C144.691 149.641 144.323 149.476 144.069 149.159C143.631 148.607 143.727 147.813 144.279 147.375L146.754 145.414C147.307 144.976 148.1 145.071 148.538 145.623C148.976 146.175 148.881 146.969 148.329 147.407L145.853 149.368C145.618 149.552 145.345 149.641 145.066 149.641Z" fill="#FFC17C"/>
<path d="M158.026 100.801L173.127 137.092C173.127 137.092 153.741 129.779 131.416 139.072L129.549 134.705L129.27 134.057L129.003 133.404L127.22 129.005C149.551 119.711 158.026 100.801 158.026 100.801Z" fill="#06B6D4"/>
<path d="M126.91 132.547L143.884 125.272C150.917 122.257 156.459 116.576 159.303 109.473" stroke="#1F2937" stroke-width="1.26956" stroke-miterlimit="10" stroke-linecap="round"/>
<path d="M127.132 127.959L119.039 131.327L124.112 143.517L132.205 140.149L127.132 127.959Z" fill="#E5E7EB"/>
<path d="M133.988 148.873L134.426 144.151C134.521 143.109 135.004 142.138 135.778 141.427L139.067 138.425C139.651 137.892 140.577 138.05 140.945 138.749L143.472 143.497C143.688 143.909 143.561 144.417 143.174 144.677C142.494 145.128 141.593 145.052 140.996 144.493L139.022 142.652C139.022 142.652 141.758 148.537 138.54 151.92L133.988 148.873Z" fill="#FFC17C"/>
<path d="M63.6033 339.917L61.6038 363.657L69.9194 368.482L74.5787 368.983C75.4737 369.078 76.1783 369.802 76.2418 370.703C76.3053 371.598 75.7213 372.417 74.8453 372.639L69.4751 374.023L50.5079 374.08L48.2861 339.91H63.6033V339.917Z" fill="#E5E7EB"/>
<path d="M99.99 339.917L100.212 363.657L108.528 368.482L113.187 368.983C114.082 369.078 114.787 369.802 114.85 370.703C114.914 371.598 114.33 372.417 113.454 372.639L108.083 374.023L89.1163 374.08L86.8945 339.91H99.99V339.917Z" fill="#E5E7EB"/>
<path d="M45.8555 195.853C45.8555 195.853 47.5567 189.81 48.0391 188.718C48.7437 187.131 50.2227 185.906 50.2227 185.906" stroke="#1F2937" stroke-width="1.26956" stroke-miterlimit="10" stroke-linecap="round"/>
<path d="M141.218 139.314L143.49 143.459C143.738 143.909 143.624 144.468 143.224 144.785C142.665 145.236 141.859 145.211 141.326 144.728L139.015 142.653C139.015 142.653 141.77 148.632 138.628 151.774" stroke="#1F2937" stroke-width="1.26956" stroke-miterlimit="10" stroke-linecap="round" stroke-linejoin="round"/>
<path d="M77.3076 229.096L80.1197 217.264" stroke="#E5E7EB" stroke-width="1.26956" stroke-miterlimit="10" stroke-linecap="round"/>
<path d="M366.097 102.522H197.697C193.215 102.522 189.578 98.8843 189.578 94.4027V57.3951C189.578 52.9135 193.215 49.2762 197.697 49.2762H366.097C370.579 49.2762 374.216 52.9135 374.216 57.3951V94.4027C374.216 98.8843 370.579 102.522 366.097 102.522Z" fill="#083344" stroke="#155E75" stroke-width="1.90434" stroke-miterlimit="10"/>
<path d="M218.117 90.8546C226.377 90.8546 233.073 84.1589 233.073 75.8992C233.073 67.6396 226.377 60.9438 218.117 60.9438C209.858 60.9438 203.162 67.6396 203.162 75.8992C203.162 84.1589 209.858 90.8546 218.117 90.8546Z" fill="#06B6D4"/>
<path d="M355.134 72.4965H251.303C248.688 72.4965 246.567 70.3764 246.567 67.7611C246.567 65.1458 248.688 63.0256 251.303 63.0256H355.134C357.749 63.0256 359.869 65.1458 359.869 67.7611C359.869 70.3764 357.749 72.4965 355.134 72.4965Z" fill="#06B6D4"/>
<path d="M355.134 88.7658H251.303C248.688 88.7658 246.567 86.6457 246.567 84.0304C246.567 81.4151 248.688 79.2949 251.303 79.2949H355.134C357.749 79.2949 359.869 81.4151 359.869 84.0304C359.869 86.6457 357.749 88.7658 355.134 88.7658Z" fill="#06B6D4"/>
<path d="M218.119 77.7841C220.815 77.7841 223 75.5986 223 72.9027C223 70.2067 220.815 68.0212 218.119 68.0212C215.423 68.0212 213.237 70.2067 213.237 72.9027C213.237 75.5986 215.423 77.7841 218.119 77.7841Z" fill="#155E75"/>
<path d="M225.291 80.3358V86.582C223.247 87.9595 220.778 88.7657 218.118 88.7657C215.459 88.7657 212.989 87.9595 210.945 86.582V80.3358H225.291Z" fill="#155E75"/>
<path d="M366.097 164.406H197.697C193.215 164.406 189.578 160.769 189.578 156.287V119.28C189.578 114.798 193.215 111.161 197.697 111.161H366.097C370.579 111.161 374.216 114.798 374.216 119.28V156.287C374.216 160.769 370.579 164.406 366.097 164.406Z" fill="#083344" stroke="#155E75" stroke-width="1.90434" stroke-miterlimit="10"/>
<path d="M218.117 152.733C226.377 152.733 233.073 146.037 233.073 137.777C233.073 129.518 226.377 122.822 218.117 122.822C209.858 122.822 203.162 129.518 203.162 137.777C203.162 146.037 209.858 152.733 218.117 152.733Z" fill="#06B6D4"/>
<path d="M355.134 134.375H251.303C248.688 134.375 246.567 132.255 246.567 129.64C246.567 127.025 248.688 124.905 251.303 124.905H355.134C357.749 124.905 359.869 127.025 359.869 129.64C359.869 132.262 357.749 134.375 355.134 134.375Z" fill="#06B6D4"/>
<path d="M355.134 150.651H251.303C248.688 150.651 246.567 148.531 246.567 145.916C246.567 143.3 248.688 141.18 251.303 141.18H355.134C357.749 141.18 359.869 143.3 359.869 145.916C359.869 148.531 357.749 150.651 355.134 150.651Z" fill="#06B6D4"/>
<path d="M218.119 139.669C220.815 139.669 223 137.484 223 134.788C223 132.092 220.815 129.906 218.119 129.906C215.423 129.906 213.237 132.092 213.237 134.788C213.237 137.484 215.423 139.669 218.119 139.669Z" fill="#155E75"/>
<path d="M225.291 142.214V148.461C223.247 149.838 220.778 150.644 218.118 150.644C215.459 150.644 212.989 149.838 210.945 148.461V142.214H225.291Z" fill="#155E75"/>
<path d="M366.097 226.284H197.697C193.215 226.284 189.578 222.647 189.578 218.166V181.158C189.578 176.676 193.215 173.039 197.697 173.039H366.097C370.579 173.039 374.216 176.676 374.216 181.158V218.166C374.216 222.647 370.579 226.284 366.097 226.284Z" fill="#083344" stroke="#155E75" stroke-width="1.90434" stroke-miterlimit="10"/>
<path d="M218.117 214.617C226.377 214.617 233.073 207.921 233.073 199.662C233.073 191.402 226.377 184.706 218.117 184.706C209.858 184.706 203.162 191.402 203.162 199.662C203.162 207.921 209.858 214.617 218.117 214.617Z" fill="#06B6D4"/>
<path d="M355.134 196.259H251.303C248.688 196.259 246.567 194.139 246.567 191.524C246.567 188.909 248.688 186.788 251.303 186.788H355.134C357.749 186.788 359.869 188.909 359.869 191.524C359.869 194.139 357.749 196.259 355.134 196.259Z" fill="#06B6D4"/>
<path d="M355.134 212.529H251.303C248.688 212.529 246.567 210.409 246.567 207.793C246.567 205.178 248.688 203.058 251.303 203.058H355.134C357.749 203.058 359.869 205.178 359.869 207.793C359.869 210.409 357.749 212.529 355.134 212.529Z" fill="#06B6D4"/>
<path d="M218.119 201.547C220.815 201.547 223 199.362 223 196.666C223 193.97 220.815 191.784 218.119 191.784C215.423 191.784 213.237 193.97 213.237 196.666C213.237 199.362 215.423 201.547 218.119 201.547Z" fill="#155E75"/>
<path d="M225.291 204.099V210.345C223.247 211.722 220.778 212.529 218.118 212.529C215.459 212.529 212.989 211.722 210.945 210.345V204.099H225.291Z" fill="#155E75"/>
<path d="M387.419 288.423H219.018C214.537 288.423 210.899 284.786 210.899 280.304V243.297C210.899 238.815 214.537 235.178 219.018 235.178H387.419C391.9 235.178 395.538 238.815 395.538 243.297V280.304C395.538 284.792 391.9 288.423 387.419 288.423Z" fill="#083344" stroke="#155E75" stroke-width="1.90434" stroke-miterlimit="10"/>
<path d="M239.434 276.756C247.694 276.756 254.389 270.06 254.389 261.801C254.389 253.541 247.694 246.845 239.434 246.845C231.174 246.845 224.479 253.541 224.479 261.801C224.479 270.06 231.174 276.756 239.434 276.756Z" fill="#06B6D4"/>
<path d="M376.458 258.398H272.627C270.012 258.398 267.892 256.278 267.892 253.663C267.892 251.047 270.012 248.927 272.627 248.927H376.458C379.073 248.927 381.193 251.047 381.193 253.663C381.193 256.284 379.073 258.398 376.458 258.398Z" fill="#06B6D4"/>
<path d="M376.458 274.667H272.627C270.012 274.667 267.892 272.547 267.892 269.932C267.892 267.317 270.012 265.197 272.627 265.197H376.458C379.073 265.197 381.193 267.317 381.193 269.932C381.193 272.554 379.073 274.667 376.458 274.667Z" fill="#06B6D4"/>
<path d="M239.432 263.693C242.128 263.693 244.314 261.507 244.314 258.811C244.314 256.115 242.128 253.93 239.432 253.93C236.736 253.93 234.551 256.115 234.551 258.811C234.551 261.507 236.736 263.693 239.432 263.693Z" fill="#155E75"/>
<path d="M246.607 266.238V272.484C244.563 273.862 242.093 274.668 239.434 274.668C236.774 274.668 234.305 273.862 232.261 272.484V266.238H246.607Z" fill="#155E75"/>
<path d="M399.067 279.727C403.94 279.727 407.89 275.776 407.89 270.903C407.89 266.03 403.94 262.08 399.067 262.08C394.194 262.08 390.243 266.03 390.243 270.903C390.243 275.776 394.194 279.727 399.067 279.727Z" fill="#06B6D4"/>
<path d="M397.663 263.057C397.663 263.057 393.975 259.496 392.192 260.258C390.408 261.02 393.334 266.625 393.334 266.625L393.08 268.662C393.08 268.662 388.053 265.546 386.847 267.774C385.571 270.129 391.811 273.88 391.811 273.88L397.663 263.057Z" fill="#06B6D4"/>
<path d="M398.458 244.611C398.458 244.611 393.431 241.063 391.799 243.208C389.743 245.919 395.056 249.2 395.056 249.2" stroke="#083344" stroke-width="1.90434" stroke-miterlimit="10" stroke-linecap="round" stroke-linejoin="round"/>
<path d="M368.115 67.2025H409.077C410.873 67.2025 412.333 65.7426 412.333 63.9461V63.451C412.333 61.6546 410.873 60.1946 409.077 60.1946H368.115C366.318 60.1946 364.858 61.6546 364.858 63.451V63.9461C364.865 65.7489 366.318 67.2025 368.115 67.2025Z" fill="#D1D5DB"/>
<path d="M419.976 67.2025H431.821C433.618 67.2025 435.078 65.7426 435.078 63.9461V63.451C435.078 61.6546 433.618 60.1946 431.821 60.1946H419.976C418.18 60.1946 416.72 61.6546 416.72 63.451V63.9461C416.726 65.7489 418.18 67.2025 419.976 67.2025Z" stroke="#01D2DF" stroke-width="1.90434" stroke-miterlimit="10"/>
<path d="M368.115 90.7405H432.215C434.011 90.7405 435.471 89.2805 435.471 87.4841V86.989C435.471 85.1925 434.011 83.7325 432.215 83.7325H368.115C366.318 83.7325 364.858 85.1925 364.858 86.989V87.4841C364.865 89.2805 366.318 90.7405 368.115 90.7405Z" stroke="#01D2DF" stroke-width="1.90434" stroke-miterlimit="10"/>
<path d="M392.878 78.9712H432.215C434.011 78.9712 435.471 77.5112 435.471 75.7148V75.2197C435.471 73.4233 434.011 71.9633 432.215 71.9633H392.878C391.081 71.9633 389.621 73.4233 389.621 75.2197V75.7148C389.621 77.5112 391.081 78.9712 392.878 78.9712Z" fill="#D1D5DB"/>
<path d="M368.115 78.9715H383.553C385.349 78.9715 386.809 77.5115 386.809 75.715V75.2199C386.809 73.4235 385.349 71.9635 383.553 71.9635H368.115C366.318 71.9635 364.858 73.4235 364.858 75.2199V75.715C364.865 77.5115 366.318 78.9715 368.115 78.9715Z" fill="#D1D5DB"/>
<defs>
<linearGradient id="paint0_linear_440_980" x1="199.025" y1="4.53642" x2="291.149" y2="373.839" gradientUnits="userSpaceOnUse">
<stop stop-color="#06B6D4"/>
<stop offset="1" stop-color="#06B6D4" stop-opacity="0"/>
</linearGradient>
</defs>
</svg>
