<svg width="512" height="462" viewBox="0 0 512 462" fill="none" xmlns="http://www.w3.org/2000/svg">
<path d="M432.577 142.059C366.338 100.248 278.749 120.047 236.938 186.285L213.504 223.41C202.436 240.943 176.684 240.385 166.382 222.391C158.041 207.759 145.506 195.38 129.368 187.194C85.4991 164.941 31.8993 182.468 9.65317 226.338C-12.5995 270.207 4.9274 323.806 48.7965 346.053L147.57 396.154C157.768 401.275 169.596 404.32 181.78 404.287L210.401 404.209L357.25 403.82C403.8 403.34 450.11 379.99 476.81 337.698C518.614 271.46 498.816 183.871 432.577 142.059Z" fill="url(#paint0_linear_440_888)" fill-opacity="0.32"/>
<path d="M384.048 275.432H189.208C184.936 275.432 181.47 271.966 181.47 267.694V134.107C181.47 129.836 184.936 126.369 189.208 126.369H384.048C388.319 126.369 391.786 129.836 391.786 134.107V267.688C391.786 271.966 388.326 275.432 384.048 275.432Z" fill="#374151" stroke="#01D2DF" stroke-width="1.94743" stroke-miterlimit="10"/>
<path d="M391.785 141.89H181.462V134.178C181.462 129.79 185.019 126.233 189.407 126.233H383.833C388.221 126.233 391.778 129.79 391.778 134.178V141.89H391.785Z" fill="#01D2DF"/>
<path d="M191.498 137.177C193.219 137.177 194.614 135.782 194.614 134.061C194.614 132.34 193.219 130.945 191.498 130.945C189.777 130.945 188.382 132.34 188.382 134.061C188.382 135.782 189.777 137.177 191.498 137.177Z" fill="#F3F4F6"/>
<path d="M200.918 137.177C202.639 137.177 204.034 135.782 204.034 134.061C204.034 132.34 202.639 130.945 200.918 130.945C199.197 130.945 197.802 132.34 197.802 134.061C197.802 135.782 199.197 137.177 200.918 137.177Z" fill="#F3F4F6"/>
<path d="M210.33 137.177C212.051 137.177 213.446 135.782 213.446 134.061C213.446 132.34 212.051 130.945 210.33 130.945C208.609 130.945 207.214 132.34 207.214 134.061C207.214 135.782 208.609 137.177 210.33 137.177Z" fill="#F3F4F6"/>
<path d="M218.963 258.794H200.859C199.171 258.794 197.808 257.425 197.808 255.743V172.607C197.808 170.92 199.177 169.556 200.859 169.556H218.963C220.651 169.556 222.014 170.926 222.014 172.607V255.743C222.014 257.425 220.645 258.794 218.963 258.794Z" fill="#E5E7EB"/>
<path d="M218.963 258.794H200.859C199.171 258.794 197.808 257.424 197.808 255.743V192.088H222.021V255.743C222.014 257.424 220.645 258.794 218.963 258.794Z" fill="#06B6D4"/>
<path d="M218.963 258.794H200.859C199.171 258.794 197.808 257.424 197.808 255.743V229.777H222.021V255.743C222.014 257.424 220.645 258.794 218.963 258.794Z" fill="#164E63"/>
<path d="M257.153 258.794H238.893C237.25 258.794 235.913 257.464 235.913 255.815V172.53C235.913 170.887 237.244 169.55 238.893 169.55H257.153C258.795 169.55 260.133 170.881 260.133 172.53V255.821C260.126 257.464 258.795 258.794 257.153 258.794Z" fill="#E5E7EB"/>
<path d="M257.077 258.794H238.972C237.284 258.794 235.921 257.424 235.921 255.743V203.74H260.134V255.743C260.127 257.424 258.764 258.794 257.077 258.794Z" fill="#06B6D4"/>
<path d="M257.077 258.795H238.972C237.284 258.795 235.921 257.425 235.921 255.744V241.333H260.134V255.744C260.127 257.425 258.764 258.795 257.077 258.795Z" fill="#164E63"/>
<path d="M294.793 258.794H277.474C275.572 258.794 274.027 257.249 274.027 255.347V172.997C274.027 171.095 275.572 169.55 277.474 169.55H294.793C296.695 169.55 298.24 171.095 298.24 172.997V255.34C298.24 257.249 296.695 258.794 294.793 258.794Z" fill="#E5E7EB"/>
<path d="M295.183 258.794H277.078C275.391 258.794 274.027 257.424 274.027 255.743V181.87H298.24V255.743C298.24 257.424 296.871 258.794 295.183 258.794Z" fill="#06B6D4"/>
<path d="M295.183 258.794H277.078C275.391 258.794 274.027 257.424 274.027 255.743V226.973H298.24V255.743C298.24 257.424 296.871 258.794 295.183 258.794Z" fill="#164E63"/>
<path d="M333.302 258.795H315.197C313.51 258.795 312.146 257.425 312.146 255.744V172.608C312.146 170.92 313.516 169.557 315.197 169.557H333.302C334.99 169.557 336.353 170.927 336.353 172.608V255.744C336.353 257.425 334.99 258.795 333.302 258.795Z" fill="#E5E7EB"/>
<path d="M333.302 258.795H315.197C313.51 258.795 312.146 257.425 312.146 255.744V197.386H336.36V255.744C336.353 257.425 334.99 258.795 333.302 258.795Z" fill="#06B6D4"/>
<path d="M333.302 258.795H315.197C313.51 258.795 312.146 257.425 312.146 255.744V234.582H336.36V255.744C336.353 257.425 334.99 258.795 333.302 258.795Z" fill="#164E63"/>
<path d="M371.415 258.795H353.311C351.623 258.795 350.26 257.425 350.26 255.744V172.608C350.26 170.92 351.629 169.557 353.311 169.557H371.415C373.103 169.557 374.466 170.927 374.466 172.608V255.744C374.466 257.425 373.103 258.795 371.415 258.795Z" fill="#E5E7EB"/>
<path d="M371.415 258.795H353.311C351.623 258.795 350.26 257.425 350.26 255.744V187.136H374.473V255.737C374.466 257.425 373.103 258.795 371.415 258.795Z" fill="#06B6D4"/>
<path d="M371.415 258.795H353.311C351.623 258.795 350.26 257.425 350.26 255.744V229.778H374.473V255.744C374.466 257.425 373.103 258.795 371.415 258.795Z" fill="#164E63"/>
<path d="M428.209 234.179C439.816 234.751 449.293 245.416 448.313 257.217C447.761 263.865 441.731 267.383 438.758 270.765C427.437 283.651 428.852 288.857 422.977 288.493C406.275 287.455 402.854 272.576 404.08 260.528C405.314 248.48 408.949 233.232 428.209 234.179Z" fill="#06B6D4"/>
<path d="M424.54 257.964L424.404 263.287C424.222 270.655 418.101 276.471 410.739 276.289L405.702 276.166C403.878 271.304 403.553 265.663 404.079 260.528C404.624 255.16 405.656 249.149 408.337 244.222L411.538 244.3C418.899 244.481 424.722 250.609 424.54 257.964Z" fill="#F3F4F6"/>
<path d="M408.337 244.222L411.693 244.306C419.054 244.488 424.877 250.609 424.695 257.971L424.559 263.294C424.377 270.661 418.256 276.478 410.895 276.296L405.708 276.166" stroke="#164E63" stroke-width="1.94743" stroke-miterlimit="10" stroke-linecap="round" stroke-linejoin="round"/>
<path d="M404.189 269.999C404.306 269.999 404.436 270.006 404.559 269.999C407.286 269.947 409.136 268.578 409.72 268.117" stroke="#164E63" stroke-width="1.94743" stroke-miterlimit="10" stroke-linecap="round" stroke-linejoin="round"/>
<path d="M413.891 257.774C413.948 255.465 412.665 253.561 411.023 253.52C409.382 253.479 408.004 255.317 407.946 257.625C407.889 259.933 409.173 261.837 410.814 261.879C412.455 261.92 413.833 260.082 413.891 257.774Z" stroke="#164E63" stroke-width="1.94743" stroke-miterlimit="10" stroke-linecap="round" stroke-linejoin="round"/>
<path d="M430.214 373.388C427.734 377.309 424.599 379.568 421.639 380.86C416.666 383.034 412.2 382.489 412.2 382.489L412.22 382.346L412.181 382.489C412.181 382.489 400.814 381.1 396.893 369.312C394.719 362.788 389.272 316.043 392.064 304.683C394.862 293.329 408.429 289.525 423.339 291.349C425.657 291.635 427.909 292.044 430.065 292.57C441.756 295.452 450.493 301.956 450.474 311.83C450.448 323.527 433.901 367.578 430.214 373.388Z" fill="#06B6D4"/>
<path d="M400.767 305.118L402.402 357.419C402.402 357.419 402.532 369.76 406.81 374.959" stroke="#164E63" stroke-width="1.94743" stroke-miterlimit="10" stroke-linecap="round" stroke-linejoin="round"/>
<path d="M435.024 252.706C435.024 252.706 444.144 253.4 444.728 260.924C444.93 263.475 440.399 268.227 437.166 272.271C434.219 275.965 432.544 279.087 432.544 279.087" stroke="#164E63" stroke-width="1.94743" stroke-miterlimit="10" stroke-linecap="round" stroke-linejoin="round"/>
<path d="M380.851 311.155C385.835 311.155 389.874 307.115 389.874 302.132C389.874 297.149 385.835 293.109 380.851 293.109C375.868 293.109 371.828 297.149 371.828 302.132C371.828 307.115 375.868 311.155 380.851 311.155Z" fill="#06B6D4"/>
<path d="M383.955 299.035C383.955 299.035 378.08 296.776 377.003 299.308C375.639 302.514 381.728 304.429 381.728 304.429" stroke="#164E63" stroke-width="1.94743" stroke-miterlimit="10" stroke-linecap="round" stroke-linejoin="round"/>
<path d="M409.662 146.279H315.062C312.803 146.279 310.973 144.448 310.973 142.189V120.969C310.973 118.709 312.803 116.879 315.062 116.879H409.662C411.921 116.879 413.752 118.709 413.752 120.969V142.189C413.752 144.448 411.921 146.279 409.662 146.279Z" fill="#1F2937"/>
<path d="M403.099 126.227H321.625V136.918H403.099V126.227Z" fill="#06B6D4"/>
<path d="M369.856 126.227H321.625V136.918H369.856V126.227Z" fill="#01D2DF"/>
<path d="M409.662 112.926H315.062C312.803 112.926 310.973 111.095 310.973 108.836V87.6157C310.973 85.3567 312.803 83.5261 315.062 83.5261H409.662C411.921 83.5261 413.752 85.3567 413.752 87.6157V108.836C413.752 111.095 411.921 112.926 409.662 112.926Z" fill="#1F2937"/>
<path d="M403.099 92.8735H321.625V103.565H403.099V92.8735Z" fill="#06B6D4"/>
<path d="M385.845 92.8735H321.625V103.565H385.845V92.8735Z" fill="#01D2DF"/>
<path d="M409.662 79.5726H315.062C312.803 79.5726 310.973 77.742 310.973 75.483V54.2625C310.973 52.0034 312.803 50.1729 315.062 50.1729H409.662C411.921 50.1729 413.752 52.0034 413.752 54.2625V75.483C413.752 77.742 411.921 79.5726 409.662 79.5726Z" fill="#1F2937"/>
<path d="M403.099 59.5272H321.625V70.2186H403.099V59.5272Z" fill="#06B6D4"/>
<path d="M385.845 59.5272H321.625V70.2186H385.845V59.5272Z" fill="#164E63"/>
<path d="M157.341 162.442L153.862 169.025L151.973 161.988L157.341 162.442Z" fill="#1F2937"/>
<path d="M74.9834 279.217C74.9834 279.217 82.2408 366.793 84.6621 396.141H94.646C94.646 396.141 94.3409 327.169 101.001 293.284L135.49 395.531H146.681L120.664 273.92L77.4047 261.969L74.9834 279.217Z" fill="#1F2937"/>
<path d="M159.458 179.573C159.12 181.28 155.037 181.728 155.037 181.728C155.037 181.728 155.03 181.826 155.011 181.994C154.972 182.442 154.842 183.397 154.518 184.565C153.797 187.129 152.103 190.732 148.169 192.193C146.838 192.692 145.254 192.946 143.365 192.835C143.028 192.816 142.684 192.783 142.327 192.738L134.277 197.386L125.994 191.258C125.994 191.258 130.759 186.383 130.532 183.773C130.304 181.164 125.02 174.802 127.24 165.623C129.512 156.243 134.842 154.049 140.516 153.594C147.526 153.036 156.848 157.457 155.602 175.717C155.602 175.717 159.802 177.872 159.458 179.573Z" fill="#FFC17C"/>
<path d="M154.861 247.447L184.189 226.876L179.502 217.197L152.426 231.719L136.016 203.507C135.497 201.988 138.931 197.684 138.931 197.684L125.545 187.135L122.183 190.556C122.183 190.556 120.528 190.647 118.385 191.348L118.392 191.329L75.5289 206.662C71.5691 208.077 68.9336 211.829 68.9336 216.029V253.64L79.8262 250.161L82.7733 218.242L97.3207 214.737C89.2583 226.954 80.3326 244.007 77.0998 263.624L120.437 276.555C120.437 276.555 125.091 272.699 124.747 270.654C124.409 268.61 120.664 265.098 120.664 265.098C120.664 265.098 127.662 243.358 132.628 226.688L145.422 245.682C147.519 248.817 151.777 249.609 154.861 247.447Z" fill="#F3F4F6"/>
<path d="M130.135 182.371L122.215 166.051C122.215 166.051 120.872 160.306 126.006 159.242C126.006 159.242 126.98 151.828 131.745 151.984C136.509 152.134 152.543 151.984 152.543 151.984C152.543 151.984 155.062 142.39 159.833 144.448C164.747 146.564 158.171 152.542 158.171 152.542C158.171 152.542 163.468 151.861 164.676 154.886C166.39 159.177 162.254 163.208 154.218 163.552H144.559C144.559 163.552 145.617 168.875 140.469 173.016L130.135 182.371Z" fill="#1F2937"/>
<path d="M133.666 200.709C138.054 203.358 137.451 208.155 137.451 208.155C137.574 209.505 135.419 217.295 132.621 226.701C132.465 227.233 132.303 227.766 132.141 228.304C132.017 228.713 131.894 229.129 131.771 229.544C130.836 232.654 129.849 235.886 128.862 239.074C128.661 239.716 128.466 240.352 128.272 240.982C127.817 242.456 127.363 243.916 126.915 245.351C126.792 245.753 126.662 246.162 126.538 246.565C126.409 246.967 126.285 247.363 126.162 247.759C126.039 248.155 125.915 248.551 125.792 248.941C125.448 250.044 125.11 251.115 124.786 252.154C124.591 252.758 124.409 253.348 124.227 253.92C124.052 254.465 123.883 254.997 123.721 255.51C123.656 255.724 123.591 255.932 123.52 256.14C123.423 256.458 123.325 256.763 123.228 257.068C123.15 257.315 123.072 257.555 123.001 257.788C122.949 257.938 122.903 258.087 122.858 258.23C122.812 258.373 122.767 258.515 122.721 258.658C122.624 258.963 122.527 259.262 122.436 259.554C122.364 259.794 122.287 260.028 122.215 260.262C121.495 262.514 120.982 264.111 120.774 264.773C120.761 264.806 120.748 264.838 120.742 264.871C120.69 265.026 120.664 265.104 120.664 265.104C120.664 265.104 124.403 268.623 124.747 270.661C125.084 272.706 120.436 276.562 120.436 276.562L77.0996 263.631C77.2814 262.508 77.4891 261.398 77.7098 260.294C77.7682 259.976 77.8396 259.651 77.9045 259.333C77.9824 258.963 78.0604 258.587 78.1447 258.217C78.2486 257.75 78.3525 257.289 78.4628 256.821C78.5732 256.347 78.69 255.867 78.8134 255.393C78.9432 254.854 79.086 254.316 79.2288 253.783C79.3456 253.335 79.469 252.887 79.5988 252.44C79.7222 251.998 79.8455 251.557 79.9753 251.122C80.1441 250.557 80.3129 249.992 80.4881 249.434C80.618 249.006 80.7543 248.577 80.8971 248.155C81.3061 246.889 81.7345 245.636 82.1824 244.403C82.3837 243.851 82.5849 243.306 82.7926 242.761C83.234 241.586 83.6949 240.43 84.1688 239.288C84.3376 238.872 84.5128 238.457 84.6881 238.048C85.0321 237.243 85.3762 236.445 85.7332 235.659C85.915 235.25 86.0967 234.848 86.285 234.445C86.4538 234.082 86.6225 233.725 86.7913 233.368C87.025 232.861 87.2652 232.368 87.5054 231.875C87.7456 231.381 87.9857 230.888 88.2324 230.408C89.6865 227.493 91.2055 224.728 92.7375 222.112C92.9907 221.677 93.2503 221.242 93.5035 220.813C94.0747 219.852 94.646 218.911 95.2237 218.002C95.6716 217.288 96.113 216.587 96.561 215.906C96.8076 215.516 97.0608 215.133 97.3075 214.757C97.314 214.75 97.314 214.744 97.314 214.744H97.3204" stroke="#9CA3AF" stroke-width="2.59658" stroke-miterlimit="10" stroke-linecap="round" stroke-linejoin="round"/>
<path d="M118.385 191.355C118.515 191.31 118.651 191.271 118.781 191.232C118.885 191.199 118.982 191.173 119.079 191.147C119.618 190.992 120.118 190.875 120.553 190.79C120.741 190.751 120.916 190.726 121.079 190.693C121.273 190.667 121.442 190.641 121.585 190.622C121.695 190.609 121.793 190.596 121.871 190.589C122.065 190.57 122.176 190.563 122.176 190.563" stroke="#9CA3AF" stroke-width="2.59658" stroke-miterlimit="10" stroke-linecap="round" stroke-linejoin="round"/>
<path d="M79.82 250.174L87.5319 257.432L88.6419 265.987C88.7393 266.753 88.2394 267.467 87.4864 267.636C86.7074 267.811 85.9285 267.338 85.7207 266.565L84.2018 260.911L83.4358 264.085C83.254 264.832 82.6763 265.416 81.9297 265.611L75.4253 267.266L70.1218 264.747C69.7129 264.553 69.5571 264.059 69.7713 263.663C70.0764 263.105 70.7061 262.813 71.3292 262.936L72.5496 263.183L69.2325 258.308C68.2912 256.925 68.1744 255.147 68.9209 253.654L79.82 250.174Z" fill="#FFC17C"/>
<path d="M137.282 205.779L152.426 231.719L179.502 217.204L184.189 226.883L154.393 247.506C151.323 249.629 147.11 248.811 145.058 245.688L132.614 226.701" stroke="#9CA3AF" stroke-width="2.59658" stroke-miterlimit="10" stroke-linecap="round" stroke-linejoin="round"/>
<path d="M118.392 191.336L75.5289 206.675C71.5691 208.09 68.9336 211.842 68.9336 216.042V253.654L79.8262 250.174L82.7733 218.262L110.375 211.608" stroke="#9CA3AF" stroke-width="2.59658" stroke-miterlimit="10" stroke-linecap="round" stroke-linejoin="round"/>
<path d="M84.0458 395.057C82.5462 398.354 81.6634 401.905 81.4362 405.521L81.0986 410.941H109.343L109.051 408.896C108.746 406.741 107.253 404.937 105.195 404.223L97.5025 401.561V395.232C97.5025 394.219 96.6781 393.395 95.6654 393.395H92.173C91.1798 393.395 90.3684 394.18 90.336 395.174C90.3425 395.174 83.8186 395.284 84.0458 395.057Z" fill="#F3F4F6"/>
<path d="M82.7988 407.65H106.051" stroke="#1F2937" stroke-width="1.29829" stroke-miterlimit="10" stroke-linecap="round" stroke-linejoin="round"/>
<path d="M135.148 394.68C134.778 398.283 135.07 401.931 136.011 405.43L137.42 410.675L164.19 401.671L163.262 399.821C162.282 397.874 160.295 396.64 158.121 396.621L149.987 396.549L147.968 390.545C147.644 389.584 146.605 389.065 145.644 389.389L142.334 390.506C141.392 390.824 140.873 391.824 141.159 392.778C141.152 392.778 135.005 394.965 135.148 394.68Z" fill="#F3F4F6"/>
<path d="M137.983 407.013L160.022 399.6" stroke="#1F2937" stroke-width="1.29829" stroke-miterlimit="10" stroke-linecap="round" stroke-linejoin="round"/>
<path d="M150.173 175.36C150.861 175.36 151.419 174.802 151.419 174.114C151.419 173.425 150.861 172.867 150.173 172.867C149.485 172.867 148.927 173.425 148.927 174.114C148.927 174.802 149.485 175.36 150.173 175.36Z" fill="#1B004F"/>
<path d="M148.168 192.192C146.837 192.692 145.253 192.945 143.364 192.835C140.131 188.966 138.262 184.013 138.262 178.865V169.161H142.157V178.865C142.157 181.021 142.553 183.13 143.299 185.104C143.617 185.948 143.994 186.766 144.435 187.551C145.409 189.291 146.668 190.868 148.168 192.192Z" fill="#1F2937"/>
<path d="M155.008 181.995C154.969 182.443 154.84 183.397 154.515 184.565C152.262 184.338 147.9 184.409 144.434 187.551C144.349 187.616 144.265 187.694 144.187 187.772L142.396 185.896C142.688 185.61 142.993 185.351 143.298 185.104C147.517 181.677 152.477 181.696 155.008 181.995Z" fill="#1F2937"/>
<path d="M178.554 219.476L190.719 211.069L202.299 208.388C202.689 208.298 203.072 208.57 203.111 208.966C203.176 209.81 202.669 210.595 201.877 210.888L194.516 213.64L198.716 217.574L195.548 223.767C195.412 224.033 195.107 224.169 194.815 224.085C193.919 223.832 193.387 222.91 193.614 222.007L193.873 220.975C193.873 220.975 187.72 226.831 180.962 225.48L178.554 219.476Z" fill="#FFC17C"/>
<path d="M185.021 218.411L192.129 213.497L195.53 217.126L195.089 220.015C195.037 220.352 194.745 220.605 194.407 220.605C193.284 220.605 192.375 219.677 192.401 218.554L192.427 217.275C192.427 217.275 192.278 222.949 187.13 222.949" stroke="#1B004F" stroke-width="0.649144" stroke-miterlimit="10" stroke-linecap="round" stroke-linejoin="round"/>
<path d="M122.177 190.563L125.65 187.252L134.426 194.205L128.525 200.865L122.177 190.563Z" stroke="#9CA3AF" stroke-width="2.59658" stroke-miterlimit="10" stroke-linecap="round" stroke-linejoin="round"/>
<path d="M135.633 179.722C135.633 179.722 128.258 173.335 133.439 169.817C138.8 166.175 140.696 174.542 140.696 174.542L135.633 179.722Z" fill="#FFC17C"/>
<path d="M148.167 186.662C148.167 186.662 148.732 188.194 150.887 188.194" stroke="#1B004F" stroke-width="1.29829" stroke-miterlimit="10" stroke-linecap="round" stroke-linejoin="round"/>
<path d="M135.256 179.119C135.256 179.119 130.011 176.276 132.082 171.933C133.633 168.681 137.482 169.038 138.891 170.687C140.15 172.16 140.858 174.354 140.858 174.354" stroke="#1B004F" stroke-width="1.29829" stroke-miterlimit="10" stroke-linecap="round" stroke-linejoin="round"/>
<path d="M155.599 175.717C155.599 175.717 159.851 178.21 159.455 179.573C159.059 180.936 154.859 181.559 154.859 181.559" stroke="#1B004F" stroke-width="1.29829" stroke-miterlimit="10" stroke-linecap="round" stroke-linejoin="round"/>
<path d="M137.223 195.795L138.923 197.684L136.541 202.377" stroke="#9CA3AF" stroke-width="2.59658" stroke-miterlimit="10" stroke-linecap="round" stroke-linejoin="round"/>
<path d="M248.018 146.279C264.918 146.279 278.618 132.578 278.618 115.678C278.618 98.7778 264.918 85.0774 248.018 85.0774C231.117 85.0774 217.417 98.7778 217.417 115.678C217.417 132.578 231.117 146.279 248.018 146.279Z" stroke="#083344" stroke-width="11.0354" stroke-miterlimit="10"/>
<path d="M278.618 115.678C278.618 132.575 264.921 146.279 248.018 146.279C231.12 146.279 217.417 132.582 217.417 115.678C217.417 98.7743 231.114 85.0774 248.018 85.0774" stroke="#0891B2" stroke-width="11.0354" stroke-miterlimit="10" stroke-linecap="round"/>
<path d="M236.488 122.845C235.625 122.481 234.969 121.988 234.515 121.378C234.061 120.767 233.84 120.079 233.84 119.32C233.84 119.164 233.866 118.911 233.924 118.567C234.067 117.827 234.392 117.158 234.898 116.574C235.404 115.99 236.008 115.535 236.709 115.224C236.41 114.938 236.17 114.601 235.989 114.205C235.807 113.809 235.722 113.387 235.722 112.932C235.722 112.66 235.748 112.413 235.807 112.179C235.963 111.368 236.313 110.641 236.858 110.005C237.404 109.368 238.124 108.869 239.033 108.505C239.942 108.142 240.987 107.96 242.175 107.96C243.246 107.96 244.174 108.122 244.96 108.453C245.745 108.784 246.342 109.226 246.758 109.79C247.173 110.355 247.381 110.985 247.381 111.686C247.381 111.9 247.362 112.127 247.316 112.374C247.186 113.017 246.953 113.568 246.621 114.023C246.284 114.477 245.823 114.88 245.239 115.224C245.693 115.522 246.044 115.912 246.29 116.379C246.531 116.853 246.654 117.372 246.654 117.944C246.654 118.275 246.628 118.56 246.57 118.801C246.271 120.17 245.531 121.28 244.349 122.124C243.168 122.968 241.571 123.39 239.559 123.39C238.377 123.396 237.352 123.215 236.488 122.845ZM241.753 119.911C242.311 119.476 242.59 118.93 242.59 118.268C242.59 117.807 242.415 117.45 242.064 117.184C241.714 116.918 241.253 116.788 240.682 116.788C239.909 116.788 239.247 116.996 238.702 117.418C238.15 117.84 237.878 118.392 237.878 119.08C237.878 119.534 238.046 119.898 238.39 120.164C238.734 120.43 239.195 120.56 239.786 120.56C240.533 120.566 241.195 120.346 241.753 119.911ZM242.928 113.523C243.415 113.147 243.655 112.666 243.655 112.095C243.655 111.712 243.506 111.4 243.207 111.16C242.908 110.926 242.486 110.81 241.941 110.81C241.24 110.81 240.649 110.998 240.175 111.381C239.695 111.757 239.455 112.251 239.455 112.848C239.455 113.25 239.604 113.555 239.896 113.783C240.188 114.003 240.617 114.114 241.169 114.114C241.857 114.101 242.441 113.9 242.928 113.523Z" fill="#CFFAFE"/>
<path d="M250.172 122.15C249.218 121.339 248.737 120.223 248.737 118.807C248.737 118.437 248.763 118.087 248.822 117.756C248.906 117.172 249.036 116.477 249.205 115.679C249.373 114.88 249.549 114.166 249.718 113.536C250.691 109.836 253.035 107.98 256.748 107.96C258.403 107.973 259.727 108.395 260.714 109.213C261.701 110.037 262.194 111.147 262.194 112.543C262.194 112.744 262.168 113.075 262.11 113.53C261.895 114.9 261.597 116.308 261.207 117.749C260.721 119.567 259.916 120.956 258.786 121.917C257.657 122.878 256.105 123.371 254.132 123.384C252.45 123.377 251.133 122.968 250.172 122.15ZM257.072 117.652C257.384 116.438 257.67 115.107 257.929 113.666C257.988 113.238 258.014 112.939 258.014 112.764C258.014 112.238 257.89 111.836 257.65 111.563C257.41 111.29 257.007 111.154 256.449 111.154C255.761 111.154 255.216 111.362 254.8 111.784C254.385 112.206 254.073 112.829 253.859 113.66C253.547 114.848 253.262 116.178 253.002 117.645C252.944 117.944 252.918 118.256 252.918 118.567C252.918 119.093 253.041 119.495 253.281 119.755C253.521 120.015 253.917 120.151 254.463 120.151C255.774 120.158 256.644 119.32 257.072 117.652Z" fill="#CFFAFE"/>
<path d="M359.1 288.831L374.342 320.275C374.913 321.45 376.458 321.742 377.419 320.846L383.845 314.855C384.475 314.27 384.644 313.336 384.267 312.563L369.246 282.105C368.707 281.008 367.298 280.677 366.325 281.411L359.684 286.416C358.937 286.987 358.697 287.993 359.1 288.831Z" fill="#164E63"/>
<path d="M361.405 288.065L376.407 318.574" stroke="#F3F4F6" stroke-width="1.29829" stroke-miterlimit="10" stroke-linecap="round" stroke-linejoin="round"/>
<path d="M353.221 315.537C358.205 315.537 362.244 311.497 362.244 306.514C362.244 301.53 358.205 297.491 353.221 297.491C348.238 297.491 344.198 301.53 344.198 306.514C344.198 311.497 348.238 315.537 353.221 315.537Z" fill="#06B6D4"/>
<path d="M351.785 298.484C351.785 298.484 348.014 294.842 346.19 295.621C344.365 296.4 347.358 302.132 347.358 302.132L347.098 304.216C347.098 304.216 341.957 301.028 340.724 303.307C339.419 305.715 345.8 309.551 345.8 309.551L351.785 298.484Z" fill="#06B6D4"/>
<defs>
<linearGradient id="paint0_linear_440_888" x1="159.525" y1="35.7722" x2="281.066" y2="404.135" gradientUnits="userSpaceOnUse">
<stop stop-color="#06B6D4"/>
<stop offset="1" stop-color="#06B6D4" stop-opacity="0"/>
</linearGradient>
</defs>
</svg>
