<svg xmlns="http://www.w3.org/2000/svg" width="236" height="240" viewBox="0 0 236 240" fill="none">
  <path d="M35.8702 0.475273C17.1902 1.39527 1.94024 18.5653 3.53024 37.5453C4.42024 48.2353 14.1302 53.9053 18.9102 59.3453C37.1202 80.0753 34.8502 88.4553 44.3002 87.8653C71.1802 86.1953 76.6802 62.2553 74.7002 42.8653C72.7102 23.4853 66.8702 -1.04473 35.8702 0.475273Z" fill="#06B6D4"/>
  <path d="M41.7803 38.7452L41.9902 47.3052C42.2902 59.1552 52.1402 68.5153 63.9802 68.2253L72.0802 68.0252C75.0202 60.1952 75.5402 51.1253 74.6902 42.8653C73.8102 34.2253 72.1603 24.5552 67.8403 16.6252L62.6902 16.7552C50.8502 17.0552 41.4803 26.9052 41.7803 38.7452Z" fill="#CFFAFE"/>
  <path d="M67.8403 16.6252L62.4403 16.7653C50.6003 17.0653 41.2303 26.9152 41.5203 38.7552L41.7302 47.3152C42.0302 59.1652 51.8802 68.5253 63.7202 68.2353L72.0703 68.0252" stroke="#083344" stroke-width="3" stroke-miterlimit="10" stroke-linecap="round" stroke-linejoin="round"/>
  <path d="M74.5203 58.1152C74.3303 58.1152 74.1202 58.1252 73.9202 58.1152C69.5302 58.0352 66.5602 55.8252 65.6202 55.0852" stroke="#083344" stroke-width="3" stroke-miterlimit="10" stroke-linecap="round" stroke-linejoin="round"/>
  <path d="M63.8226 45.1092C66.4672 45.043 68.5358 41.9772 68.4429 38.2614C68.35 34.5456 66.1307 31.5871 63.4861 31.6532C60.8414 31.7193 58.7728 34.7851 58.8658 38.5009C58.9587 42.2167 61.1779 45.1753 63.8226 45.1092Z" stroke="#083344" stroke-width="3" stroke-miterlimit="10" stroke-linecap="round" stroke-linejoin="round"/>
  <path d="M32.6402 224.465C36.6302 230.775 41.6802 234.415 46.4302 236.495C54.4302 239.995 61.6202 239.115 61.6202 239.115L61.5903 238.885L61.6503 239.115C61.6503 239.115 79.9402 236.875 86.2502 217.915C89.7502 207.415 98.5102 132.205 94.0202 113.925C89.5202 95.6553 67.6902 89.5353 43.7002 92.4753C39.9702 92.9353 36.3502 93.5853 32.8802 94.4353C14.0702 99.0753 0.0102091 109.545 0.0402091 125.425C0.0902091 144.235 26.7102 215.115 32.6402 224.465Z" fill="#06B6D4"/>
  <path d="M80.0203 114.615L77.3802 198.775C77.3802 198.775 77.1702 218.635 70.2902 227.005" stroke="#083344" stroke-width="3" stroke-miterlimit="10" stroke-linecap="round" stroke-linejoin="round"/>
  <path d="M24.9102 30.2852C24.9102 30.2852 10.2302 31.4052 9.29021 43.5152C8.97021 47.6252 16.2603 55.2651 21.4603 61.7751C26.2103 67.7151 28.9003 72.7451 28.9003 72.7451" stroke="#083344" stroke-width="3" stroke-miterlimit="10" stroke-linecap="round" stroke-linejoin="round"/>
  <path d="M117.27 92.3952C124.947 92.3952 131.17 86.172 131.17 78.4952C131.17 70.8185 124.947 64.5952 117.27 64.5952C109.593 64.5952 103.37 70.8185 103.37 78.4952C103.37 86.172 109.593 92.3952 117.27 92.3952Z" fill="#06B6D4"/>
  <path d="M235.96 36.4653V106.445C235.96 134.775 215.76 160.655 183.84 173.225H183.83C178.82 175.195 173.09 175.195 168.09 173.225C136.16 160.655 115.96 134.775 115.96 106.445V36.4653L123.15 35.5753C138.24 33.7153 152.84 29.5453 166.27 23.2553L175.96 18.7153L185.65 23.2553C199.09 29.5453 213.68 33.7153 228.77 35.5753L235.96 36.4653Z" fill="#D1D5DB"/>
  <path d="M175.96 165.955C174.65 165.955 173.39 165.715 172.2 165.245C143.67 154.015 125.96 131.485 125.96 106.445V44.0652C141.75 41.9752 156.89 37.5753 170.99 30.9753L175.96 28.6453L180.93 30.9753C195.02 37.5753 210.17 41.9752 225.96 44.0652V106.445C225.96 131.485 208.25 154.015 179.74 165.245L179.67 165.275C178.49 165.725 177.25 165.955 175.96 165.955Z" stroke="#083344" stroke-width="3" stroke-miterlimit="10" stroke-linecap="round"/>
  <path d="M164.15 116.265L146.69 97.9953C144.02 95.1953 144.12 90.7653 146.91 88.0953C149.71 85.4253 154.14 85.5253 156.81 88.3153L168.81 100.875L198.18 71.0053C200.89 68.2453 205.32 68.2153 208.08 70.9253C210.84 73.6353 210.87 78.0653 208.16 80.8253L173.25 116.325C170.74 118.885 166.62 118.855 164.15 116.265Z" fill="#083344"/>
  <path d="M111.46 75.0354C111.46 75.0354 119.38 69.4454 121.95 72.8254C125.19 77.0954 116.82 82.2654 116.82 82.2654" stroke="#083344" stroke-width="3" stroke-miterlimit="10" stroke-linecap="round" stroke-linejoin="round"/>
  <path d="M115.87 129.655C123.547 129.655 129.77 123.432 129.77 115.755C129.77 108.079 123.547 101.855 115.87 101.855C108.193 101.855 101.97 108.079 101.97 115.755C101.97 123.432 108.193 129.655 115.87 129.655Z" fill="#06B6D4"/>
  <path d="M118.08 103.385C118.08 103.385 123.89 97.7754 126.7 98.9754C129.51 100.175 124.9 109.005 124.9 109.005L125.3 112.215C125.3 112.215 133.22 107.305 135.12 110.815C137.13 114.525 127.3 120.435 127.3 120.435L118.08 103.385Z" fill="#06B6D4"/>
</svg>