<svg xmlns="http://www.w3.org/2000/svg" width="12" height="50" viewBox="0 0 12 50" fill="none">
<path d="M4.5 49.1562L11.5443 40.0069L0.0985303 38.481L4.5 49.1562ZM3.54519 1.45347C3.62677 1.71555 3.71185 2.01913 3.79889 2.36487L5.73837 1.8766C5.6439 1.50135 5.54905 1.16179 5.45481 0.859035L3.54519 1.45347ZM4.21009 4.26766C4.32038 4.85576 4.42935 5.50517 4.53443 6.21563L6.51291 5.92299C6.40439 5.18931 6.29124 4.51444 6.17582 3.89899L4.21009 4.26766ZM4.79481 8.17965C4.86862 8.80287 4.93884 9.46125 5.00434 10.1546L6.99548 9.96648C6.92854 9.25795 6.85666 8.58386 6.78092 7.9444L4.79481 8.17965ZM5.1705 12.1329C5.21788 12.7732 5.26114 13.4384 5.29962 14.1283L7.29651 14.0169C7.25738 13.3152 7.21333 12.6379 7.16505 11.9853L5.1705 12.1329ZM5.39384 16.1128C5.41934 16.7592 5.44065 17.4245 5.45733 18.1087L7.45674 18.06C7.43982 17.3659 7.41818 16.6905 7.39229 16.034L5.39384 16.1128ZM5.49194 20.1104C5.49866 20.7592 5.50127 21.4234 5.49943 22.1027L7.49942 22.1081C7.50128 21.4201 7.49864 20.7473 7.49183 20.0897L5.49194 20.1104ZM5.48157 24.0984C5.47173 24.7514 5.45784 25.4173 5.43963 26.0959L7.43891 26.1495C7.45733 25.4631 7.47138 24.7894 7.48134 24.1286L5.48157 24.0984ZM5.37475 28.0938C5.34984 28.7487 5.32097 29.4146 5.28794 30.0916L7.28556 30.189C7.31894 29.505 7.34812 28.8319 7.37331 28.1699L5.37475 28.0938ZM5.1801 32.0886C5.14132 32.7443 5.09868 33.4097 5.05203 34.0847L7.04727 34.2226C7.09438 33.541 7.13744 32.869 7.17661 32.2066L5.1801 32.0886ZM4.90443 36.0801C4.85274 36.7363 4.79729 37.4012 4.73794 38.0746L6.73022 38.2502C6.79011 37.5706 6.84608 36.8996 6.89826 36.2371L4.90443 36.0801ZM4.55311 40.0688C4.48925 40.7257 4.42172 41.3903 4.35041 42.0627L6.33925 42.2736C6.41118 41.5955 6.4793 40.925 6.54372 40.2623L4.55311 40.0688ZM4.13054 44.0544C4.0555 44.7087 3.97691 45.37 3.89467 46.0382L5.87969 46.2825C5.96261 45.6088 6.04184 44.9421 6.11751 44.2823L4.13054 44.0544Z" fill="#164E63"/>
</svg>