<svg xmlns="http://www.w3.org/2000/svg" width="12" height="49" viewBox="0 0 12 49" fill="none">
<path d="M4.5 48.5093L11.5443 39.3599L0.0985303 37.8341L4.5 48.5093ZM3.54519 0.806493C3.62677 1.06858 3.71185 1.37216 3.79889 1.7179L5.73837 1.22963C5.6439 0.854376 5.54905 0.514817 5.45481 0.212062L3.54519 0.806493ZM4.21009 3.62069C4.32038 4.20878 4.42935 4.8582 4.53443 5.56865L6.51291 5.27602C6.40439 4.54234 6.29124 3.86747 6.17582 3.25202L4.21009 3.62069ZM4.79481 7.53268C4.86862 8.1559 4.93884 8.81427 5.00434 9.50761L6.99548 9.3195C6.92854 8.61098 6.85666 7.93689 6.78092 7.29743L4.79481 7.53268ZM5.1705 11.4859C5.21788 12.1262 5.26114 12.7914 5.29962 13.4813L7.29651 13.3699C7.25738 12.6682 7.21333 11.9909 7.16505 11.3383L5.1705 11.4859ZM5.39384 15.4658C5.41934 16.1122 5.44065 16.7775 5.45733 17.4618L7.45674 17.413C7.43982 16.7189 7.41818 16.0435 7.39229 15.387L5.39384 15.4658ZM5.49194 19.4634C5.49866 20.1123 5.50127 20.7764 5.49943 21.4557L7.49942 21.4611C7.50128 20.7732 7.49864 20.1003 7.49183 19.4427L5.49194 19.4634ZM5.48157 23.4515C5.47173 24.1044 5.45784 24.7703 5.43963 25.4489L7.43891 25.5025C7.45733 24.8161 7.47138 24.1425 7.48134 23.4816L5.48157 23.4515ZM5.37475 27.4469C5.34984 28.1017 5.32097 28.7676 5.28794 29.4446L7.28556 29.5421C7.31894 28.858 7.34812 28.1849 7.37331 27.5229L5.37475 27.4469ZM5.1801 31.4416C5.14132 32.0973 5.09868 32.7627 5.05203 33.4378L7.04727 33.5757C7.09438 32.894 7.13744 32.222 7.17661 31.5597L5.1801 31.4416ZM4.90443 35.4331C4.85274 36.0893 4.79729 36.7542 4.73794 37.4277L6.73022 37.6032C6.79011 36.9236 6.84608 36.2526 6.89826 35.5901L4.90443 35.4331ZM4.55311 39.4218C4.48925 40.0787 4.42172 40.7433 4.35041 41.4157L6.33925 41.6267C6.41118 40.9485 6.4793 40.278 6.54372 39.6153L4.55311 39.4218ZM4.13054 43.4074C4.0555 44.0617 3.97691 44.723 3.89467 45.3913L5.87969 45.6356C5.96261 44.9619 6.04184 44.2951 6.11751 43.6353L4.13054 43.4074Z" fill="#164E63"/>
</svg>