<svg xmlns="http://www.w3.org/2000/svg" width="32" height="30" viewBox="0 0 32 30" fill="none">
<path d="M28.56 15.195C28.35 15.195 28.14 15.285 27.975 15.45L26.475 16.95L29.55 20.025L31.05 18.525C31.38 18.21 31.38 17.685 31.05 17.37L29.13 15.45C28.965 15.285 28.77 15.195 28.56 15.195ZM25.605 17.82L16.5 26.91V30H19.59L28.68 20.895L25.605 17.82ZM13.575 25.59C13.305 25.5 13.035 25.5 12.75 25.5C10.5 25.5 8.7 27.315 8.7 29.55V30H3C1.35 30 0 28.665 0 27V21.3H0.45C2.685 21.3 4.5 19.5 4.5 17.25C4.5 15 2.685 13.2 0.45 13.2H0V7.5C0 5.85 1.35 4.5 3 4.5H7.56C7.92 1.95 10.11 0 12.75 0C15.39 0 17.58 1.95 17.94 4.5H22.5C24.165 4.5 25.5 5.85 25.5 7.5V12.06C26.04 12.135 26.535 12.315 27 12.54C26.595 12.75 26.19 12.99 25.86 13.335L24.18 15H22.5V7.5H15V5.25C15 4.005 13.995 3 12.75 3C11.505 3 10.5 4.005 10.5 5.25V7.5H3V10.68C5.64 11.7 7.5 14.25 7.5 17.25C7.5 20.25 5.625 22.8 3 23.82V27H6.18C7.2 24.375 9.75 22.5 12.75 22.5C13.89 22.5 15 22.77 15.915 23.25L13.575 25.59Z" fill="#67E8F9"/>
</svg>