<svg xmlns="http://www.w3.org/2000/svg" width="52" height="52" viewBox="0 0 52 52" fill="none">
  <path fill-rule="evenodd" clip-rule="evenodd" d="M25.9996 0.144043C33.3812 0.144043 39.3653 6.12812 39.3653 13.5097C39.3653 20.8913 33.3812 26.8754 25.9996 26.8754C18.618 26.8754 12.6339 20.8913 12.6339 13.5097C12.6339 6.12812 18.618 0.144043 25.9996 0.144043ZM12.4483 49.8444L8.82907 51.3472C8.41078 51.521 7.94437 51.5204 7.52607 51.3478C7.10777 51.1751 6.77664 50.8468 6.60231 50.4285C4.5595 45.5227 2.51613 40.6169 0.473325 35.7117C0.293327 35.2798 0.292761 34.8389 0.471061 34.4065C0.649361 33.974 0.960678 33.6621 1.39313 33.4827L5.01233 31.9799C5.43062 31.8061 5.89703 31.8067 6.31533 31.9793C6.73363 32.152 7.06532 32.4803 7.23909 32.8985C9.2819 37.8043 11.3253 42.7096 13.3681 47.6153C13.5481 48.0472 13.5486 48.4882 13.3703 48.9206C13.1915 49.3531 12.8802 49.6649 12.4483 49.8444ZM49.3659 38.9981C50.2059 38.6743 50.8688 37.9855 51.2644 37.1879C51.6029 36.5059 51.7999 35.6127 51.5486 34.8717C51.4925 34.7065 51.4144 34.5508 51.3142 34.4087C50.8297 33.7221 49.9433 33.4884 49.148 33.4329C47.9497 33.3491 46.6167 33.6253 45.4722 33.961L35.3708 36.9242L35.3737 37.0464C35.3838 37.467 35.3323 37.8864 35.2237 38.2928C34.918 39.4334 34.1833 40.3832 33.161 40.9735C32.1416 41.5622 30.9462 41.7241 29.8084 41.419L19.9906 38.7887C19.4835 38.6528 19.1795 38.1258 19.3154 37.6187C19.4512 37.1115 19.9776 36.807 20.4853 36.9434L30.302 39.5737C30.9473 39.747 31.6282 39.653 32.2067 39.319C32.7863 38.9839 33.2052 38.4445 33.379 37.7975C33.5522 37.1517 33.4582 36.4719 33.1242 35.8934C32.7897 35.3132 32.2503 34.8949 31.6033 34.7212L24.2166 32.7423C24.1068 32.7129 24.0038 32.6642 23.911 32.5986C22.9278 31.9012 21.8438 31.2293 20.7078 30.8127C19.8367 30.4935 18.961 30.3384 18.0327 30.4046C17.2533 30.4601 16.5033 30.6661 15.7737 30.9378C14.9218 31.2548 14.0909 31.6572 13.2747 32.0569C12.0288 32.6659 10.7785 33.267 9.52642 33.8636L9.38944 33.9287L13.8322 44.5961L14.2409 44.3975C15.5626 43.7545 16.946 43.6367 18.3571 44.0465L26.5045 46.412C28.6549 47.0363 31.5558 45.8703 33.5776 45.0841C34.4148 44.7586 35.2542 44.4377 36.0919 44.1144C37.8851 43.4233 39.6783 42.7322 41.4715 42.0411C44.1024 41.0268 46.7339 40.0119 49.3659 38.9981ZM25.2513 21.0889V21.6136C25.2513 22.0268 25.5864 22.3619 25.9996 22.3619C26.4128 22.3619 26.7479 22.0268 26.7479 21.6136V21.0889C26.7479 20.6757 26.4128 20.3406 25.9996 20.3406C25.5864 20.3406 25.2513 20.6757 25.2513 21.0889ZM25.9996 14.8291C26.204 14.8291 26.3975 14.7827 26.5702 14.6995L28.4737 15.7982C28.8303 16.0031 29.286 15.8803 29.4915 15.5231C29.6964 15.1665 29.5735 14.7108 29.2164 14.5054L27.3151 13.4078C27.2839 12.9992 27.0666 12.642 26.7479 12.4218V8.9379C26.7479 8.5247 26.4128 8.1896 25.9996 8.1896C25.5864 8.1896 25.2513 8.5247 25.2513 8.9379V12.4218C24.9066 12.6601 24.6802 13.058 24.6802 13.5086C24.6802 14.2382 25.2711 14.8291 25.9996 14.8291ZM30.8301 19.3981L31.2014 19.7695C31.4935 20.0615 31.9678 20.0615 32.2599 19.7695C32.552 19.4774 32.552 19.0031 32.2599 18.711L31.8886 18.3397C31.5965 18.0476 31.1222 18.0476 30.8301 18.3397C30.5375 18.6317 30.5375 19.1061 30.8301 19.3981ZM33.5788 14.258H34.1035C34.5167 14.258 34.8518 13.9229 34.8518 13.5097C34.8518 13.0965 34.5167 12.7614 34.1035 12.7614H33.5788C33.1656 12.7614 32.8305 13.0965 32.8305 13.5097C32.8305 13.9229 33.1656 14.258 33.5788 14.258ZM31.888 8.67979L32.2594 8.30847C32.5514 8.0164 32.5514 7.54207 32.2594 7.24999C31.9673 6.95792 31.4929 6.95792 31.2009 7.24999L30.8296 7.62131C30.5375 7.91338 30.5375 8.38772 30.8296 8.67979C31.1216 8.97186 31.596 8.97186 31.888 8.67979ZM21.1697 7.62131L20.7984 7.24999C20.5063 6.95792 20.032 6.95792 19.7399 7.24999C19.4478 7.54207 19.4478 8.0164 19.7399 8.30847L20.1112 8.67979C20.4033 8.97186 20.8776 8.97186 21.1697 8.67979C21.4618 8.38715 21.4618 7.91338 21.1697 7.62131ZM18.4205 12.7614H17.8958C17.4826 12.7614 17.1475 13.0965 17.1475 13.5097C17.1475 13.9229 17.4826 14.258 17.8958 14.258H18.4205C18.8337 14.258 19.1688 13.9229 19.1688 13.5097C19.1693 13.0965 18.8342 12.7614 18.4205 12.7614ZM20.1112 18.3397L19.7399 18.711C19.4478 19.0031 19.4478 19.4774 19.7399 19.7695C20.032 20.0615 20.5063 20.0615 20.7984 19.7695L21.1697 19.3981C21.4618 19.1061 21.4618 18.6317 21.1697 18.3397C20.8776 18.0476 20.4038 18.0476 20.1112 18.3397ZM26.7485 5.93058V5.4053C26.7485 4.9921 26.4134 4.65701 26.0002 4.65701C25.587 4.65701 25.2519 4.9921 25.2519 5.4053V5.93001C25.2519 6.34321 25.587 6.6783 26.0002 6.6783C26.4134 6.6783 26.7485 6.34378 26.7485 5.93058ZM25.9996 2.22477C22.8836 2.22477 20.0625 3.48815 18.0203 5.52983C15.978 7.57207 14.7152 10.3932 14.7152 13.5092C14.7152 16.6252 15.9786 19.4463 18.0203 21.4885C20.0625 23.5307 22.8836 24.7936 25.9996 24.7936C29.1156 24.7936 31.9367 23.5302 33.979 21.4885C36.0212 19.4463 37.284 16.6252 37.284 13.5092C37.284 10.3932 36.0206 7.57207 33.979 5.52983C31.9373 3.48815 29.1156 2.22477 25.9996 2.22477ZM32.9205 6.58887C31.1494 4.81776 28.7024 3.72249 25.9996 3.72249C23.2968 3.72249 20.8499 4.81776 19.0788 6.58887C17.3076 8.35998 16.2124 10.8069 16.2124 13.5097C16.2124 16.2125 17.3076 18.6595 19.0788 20.4306C20.8499 22.2017 23.2968 23.297 25.9996 23.297C28.7024 23.297 31.1494 22.2017 32.9205 20.4306C34.6916 18.6595 35.7874 16.2125 35.7874 13.5097C35.7874 10.8069 34.6922 8.35998 32.9205 6.58887Z" fill="url(#paint0_linear_26_4754)"/>
  <defs>
    <linearGradient id="paint0_linear_26_4754" x1="12.1596" y1="21.5266" x2="62.7022" y2="28.8925" gradientUnits="userSpaceOnUse">
      <stop stop-color="#06B6D4"/>
      <stop offset="1" stop-color="#06B6D4" stop-opacity="0.51"/>
    </linearGradient>
  </defs>
</svg>