<svg xmlns="http://www.w3.org/2000/svg" width="36" height="37" viewBox="0 0 36 37" fill="none">
<path d="M15.525 26.0601L24 17.5851L21.825 15.4101L15.495 21.7551L12.345 18.6051L10.2 20.7351M9.75 30.5601C7.47 30.5601 5.525 29.7751 3.915 28.2051C2.305 26.6251 1.5 24.7001 1.5 22.4301C1.5 20.4801 2.085 18.7401 3.255 17.2101C4.435 15.6801 5.975 14.7051 7.875 14.2851C8.505 11.9851 9.755 10.1251 11.625 8.70506C13.505 7.27506 15.63 6.56006 18 6.56006C20.93 6.56006 23.41 7.58006 25.44 9.62006C27.48 11.6501 28.5 14.1301 28.5 17.0601C30.23 17.2601 31.66 18.0101 32.79 19.3101C33.93 20.5901 34.5 22.0901 34.5 23.8101C34.5 25.6901 33.845 27.2851 32.535 28.5951C31.225 29.9051 29.63 30.5601 27.75 30.5601H9.75Z" fill="#67E8F9"/>
</svg>