<svg xmlns="http://www.w3.org/2000/svg" width="210" height="149" viewBox="0 0 210 149" fill="none">
  <path d="M154.262 95.5185H29.8144C27.226 95.5185 25.127 93.4195 25.127 90.8311V6.05722C25.127 3.46885 27.226 1.36987 29.8144 1.36987H154.26C156.848 1.36987 158.947 3.46885 158.947 6.05722V90.8311C158.95 93.4195 156.851 95.5185 154.262 95.5185Z" fill="#A5F3FC" stroke="#22D3EE" stroke-width="0.848644" stroke-miterlimit="10"/>
  <path d="M195.993 31.6297H156.251C154.118 31.6297 152.387 29.9013 152.387 27.7655V13.9213C152.387 11.7884 154.115 10.0571 156.251 10.0571H195.99C198.123 10.0571 199.854 11.7855 199.854 13.9213V27.7655C199.857 29.9013 198.126 31.6297 195.993 31.6297Z" fill="#A5F3FC" stroke="#22D3EE" stroke-width="0.848644" stroke-miterlimit="10"/>
  <path d="M77.0838 85.7505H38.578C36.9147 85.7505 35.5682 84.404 35.5682 82.7407V44.232C35.5682 42.5687 36.9147 41.2222 38.578 41.2222H77.0867C78.75 41.2222 80.0965 42.5687 80.0965 44.232V82.7407C80.0937 84.4012 78.7472 85.7505 77.0838 85.7505Z" fill="#083344" stroke="#22D3EE" stroke-width="0.848644" stroke-miterlimit="10"/>
  <path d="M145.499 85.7505H87.0753C85.4119 85.7505 84.0654 84.404 84.0654 82.7407V44.232C84.0654 42.5687 85.4119 41.2222 87.0753 41.2222H145.499C147.162 41.2222 148.509 42.5687 148.509 44.232V82.7407C148.509 84.4012 147.162 85.7505 145.499 85.7505Z" fill="#083344" stroke="#22D3EE" stroke-width="0.848644" stroke-miterlimit="10"/>
  <path d="M131.787 31.6297H52.2893C46.3318 31.6297 41.503 26.8009 41.503 20.8434C41.503 14.8859 46.3318 10.0571 52.2893 10.0571H131.787C137.745 10.0571 142.574 14.8859 142.574 20.8434C142.571 26.8009 137.742 31.6297 131.787 31.6297Z" fill="#0E7490"/>
  <path d="M56.3458 13.647L57.4745 17.1208C57.5962 17.4914 57.9413 17.7431 58.3288 17.7431H61.9808C62.8521 17.7431 63.2142 18.8577 62.5098 19.3697L59.5565 21.5168C59.2425 21.7459 59.1096 22.1533 59.2284 22.5238L60.3571 25.9976C60.6258 26.8265 59.6782 27.5167 58.9738 27.0047L56.0205 24.8576C55.7065 24.6285 55.2794 24.6285 54.9626 24.8576L52.0093 27.0047C51.3049 27.5167 50.3544 26.8265 50.626 25.9976L51.7547 22.5238C51.8763 22.1533 51.7434 21.7459 51.4265 21.5168L48.4733 19.3697C47.7689 18.8577 48.131 17.7431 49.0022 17.7431H52.6542C53.0446 17.7431 53.3897 17.4914 53.5085 17.1208L54.6372 13.647C54.9031 12.8182 56.0771 12.8182 56.3458 13.647Z" fill="#FBBF24"/>
  <path d="M74.5379 13.647L75.6666 17.1208C75.7883 17.4914 76.1334 17.7431 76.5209 17.7431H80.1729C81.0442 17.7431 81.4063 18.8577 80.7019 19.3697L77.7486 21.5168C77.4346 21.7459 77.3017 22.1533 77.4205 22.5238L78.5492 25.9976C78.8179 26.8265 77.8703 27.5167 77.1659 27.0047L74.2126 24.8576C73.8986 24.6285 73.4715 24.6285 73.1546 24.8576L70.2013 27.0047C69.497 27.5167 68.5465 26.8265 68.8181 25.9976L69.9467 22.5238C70.0684 22.1533 69.9354 21.7459 69.6186 21.5168L66.6653 19.3697C65.961 18.8577 66.323 17.7431 67.1943 17.7431H70.8463C71.2367 17.7431 71.5818 17.4914 71.7006 17.1208L72.8293 13.647C73.0952 12.8182 74.2692 12.8182 74.5379 13.647Z" fill="#FBBF24"/>
  <path d="M92.73 13.647L93.8587 17.1208C93.9804 17.4914 94.3255 17.7431 94.713 17.7431H98.365C99.2363 17.7431 99.5984 18.8577 98.894 19.3697L95.9407 21.5168C95.6267 21.7459 95.4938 22.1533 95.6126 22.5238L96.7413 25.9976C97.01 26.8265 96.0624 27.5167 95.358 27.0047L92.4047 24.8576C92.0907 24.6285 91.6636 24.6285 91.3467 24.8576L88.3935 27.0047C87.6891 27.5167 86.7386 26.8265 87.0102 25.9976L88.1389 22.5238C88.2605 22.1533 88.1276 21.7459 87.8107 21.5168L84.8574 19.3697C84.1531 18.8577 84.5152 17.7431 85.3864 17.7431H89.0384C89.4288 17.7431 89.7739 17.4914 89.8927 17.1208L91.0214 13.647C91.2873 12.8182 92.4613 12.8182 92.73 13.647Z" fill="#FBBF24"/>
  <path d="M110.922 13.647L112.051 17.1208C112.172 17.4914 112.518 17.7431 112.905 17.7431H116.557C117.428 17.7431 117.79 18.8577 117.086 19.3697L114.133 21.5168C113.819 21.7459 113.686 22.1533 113.805 22.5238L114.933 25.9976C115.202 26.8265 114.254 27.5167 113.55 27.0047L110.597 24.8576C110.283 24.6285 109.856 24.6285 109.539 24.8576L106.586 27.0047C105.881 27.5167 104.931 26.8265 105.202 25.9976L106.331 22.5238C106.453 22.1533 106.32 21.7459 106.003 21.5168L103.05 19.3697C102.345 18.8577 102.707 17.7431 103.579 17.7431H107.231C107.621 17.7431 107.966 17.4914 108.085 17.1208L109.214 13.647C109.479 12.8182 110.653 12.8182 110.922 13.647Z" fill="#FBBF24"/>
  <path d="M129.114 13.647L130.243 17.1208C130.365 17.4914 130.71 17.7431 131.097 17.7431H134.749C135.62 17.7431 135.983 18.8577 135.278 19.3697L132.325 21.5168C132.011 21.7459 131.878 22.1533 131.997 22.5238L133.125 25.9976C133.394 26.8265 132.447 27.5167 131.742 27.0047L128.789 24.8576C128.475 24.6285 128.048 24.6285 127.731 24.8576L124.778 27.0047C124.073 27.5167 123.123 26.8265 123.394 25.9976L124.523 22.5238C124.645 22.1533 124.512 21.7459 124.195 21.5168L121.242 19.3697C120.537 18.8577 120.899 17.7431 121.771 17.7431H125.423C125.813 17.7431 126.158 17.4914 126.277 17.1208L127.406 13.647C127.672 12.8182 128.845 12.8182 129.114 13.647Z" stroke="#CDF7F9" stroke-width="0.848644" stroke-miterlimit="10" stroke-linecap="round" stroke-linejoin="round"/>
  <path d="M161.841 17.1633H180.095C180.896 17.1633 181.546 16.5127 181.546 15.7121V15.4915C181.546 14.6909 180.896 14.0403 180.095 14.0403H161.841C161.04 14.0403 160.39 14.6909 160.39 15.4915V15.7121C160.39 16.5127 161.04 17.1633 161.841 17.1633Z" fill="#155E75"/>
  <path d="M184.952 17.1633H190.231C191.031 17.1633 191.682 16.5127 191.682 15.7121V15.4915C191.682 14.6909 191.031 14.0403 190.231 14.0403H184.952C184.152 14.0403 183.501 14.6909 183.501 15.4915V15.7121C183.501 16.5127 184.152 17.1633 184.952 17.1633Z" stroke="#22D3EE" stroke-width="0.848644" stroke-miterlimit="10"/>
  <path d="M161.841 27.6494H190.406C191.207 27.6494 191.857 26.9988 191.857 26.1982V25.9775C191.857 25.177 191.207 24.5264 190.406 24.5264H161.841C161.04 24.5264 160.39 25.177 160.39 25.9775V26.1982C160.39 27.0016 161.04 27.6494 161.841 27.6494Z" stroke="#22D3EE" stroke-width="0.848644" stroke-miterlimit="10"/>
  <path d="M172.873 22.405H190.403C191.204 22.405 191.854 21.7544 191.854 20.9538V20.7332C191.854 19.9326 191.204 19.282 190.403 19.282H172.873C172.073 19.282 171.422 19.9326 171.422 20.7332V20.9538C171.425 21.7572 172.073 22.405 172.873 22.405Z" fill="#155E75"/>
  <path d="M161.841 22.405H168.72C169.521 22.405 170.172 21.7544 170.172 20.9538V20.7332C170.172 19.9326 169.521 19.282 168.72 19.282H161.841C161.04 19.282 160.39 19.9326 160.39 20.7332V20.9538C160.39 21.7572 161.04 22.405 161.841 22.405Z" fill="#155E75"/>
  <path d="M54.9342 114.873L60.8662 96.1748L61.0699 91.1395C61.1293 89.6827 61.3867 88.24 61.8337 86.851L62.8068 83.827L62.8492 81.5527C62.8577 81.1793 63.2396 80.936 63.5819 81.0859L63.5904 81.0916C64.5776 81.5272 65.2848 82.4551 65.3697 83.53C65.415 84.0986 65.364 84.7379 65.0981 85.3574L65.3329 87.8864L70.9029 85.199C71.5111 84.9048 72.2437 85.1962 72.4842 85.8298C72.6115 86.1636 72.5747 86.537 72.3908 86.8397L72.0401 87.4168L72.9226 88.0646L74.1277 94.2286C74.3597 95.4082 73.9382 96.1805 72.9311 96.8339C71.6978 97.6373 70.4814 98.3021 69.3385 98.8622C67.7883 99.6203 66.439 99.7844 66.439 99.7844L61.2198 124.548C60.8606 126.395 59.8592 128.075 58.3401 129.19C57.1011 130.098 55.5 130.638 53.7489 129.645L54.9342 114.873Z" fill="#FFC17C"/>
  <path d="M33.9727 50.6733C39.5455 51.5558 44.5666 57.2191 44.9485 62.5203C45.2031 66.0394 44.9683 69.2897 44.8014 72.11C44.4139 78.6417 43.5963 83.1141 44.3573 85.0122C44.8014 86.1211 45.5199 86.5935 46.0631 86.817C46.5581 87.0207 46.7533 87.6232 46.4959 88.09C44.9655 90.8594 39.3814 97.2723 27.8455 94.9979C12.8302 92.039 10.9518 78.7832 11.0367 75.6206C11.2319 68.3053 15.6477 47.7709 33.9727 50.6733Z" fill="#1F2937"/>
  <path d="M41.486 143.082H9.31958L9.65056 141.303C9.65056 141.303 8.46529 141.303 7.9363 136.887C7.40731 132.471 3.71854 103.733 3.71854 103.733C3.71854 103.733 2.99436 96.418 7.4752 93.6486C11.956 90.8792 18.2841 90.353 18.2841 90.353C18.2841 90.353 21.5797 96.22 27.8738 95.8579C34.1679 95.4958 36.0151 92.5963 36.0151 92.5963L43.0023 95.8918L53.0219 113.097C53.0219 113.097 54.0771 112.503 54.5382 112.964L54.3402 129.773C54.3402 129.773 54.2496 131.06 53.0757 130.746L43.3983 119.159L40.3658 130.429L41.486 143.082Z" fill="#E5E7EB"/>
  <path d="M33.7096 53.3099C39.7633 54.0624 43.4662 59.9661 43.5313 62.9986C43.5963 66.0311 42.4761 71.072 42.4761 72.9503C42.4761 74.8287 42.9712 76.8569 41.834 79.0804C40.6968 81.3038 37.5342 85.2104 36.7421 85.2104C35.95 85.2104 32.2924 85.2104 32.2924 85.2104L30.6602 90.6983L35.7039 92.7266C35.7039 92.7266 33.0335 96.1381 27.1015 95.7902C21.1695 95.4451 18.748 90.3023 18.748 90.3023L22.4566 89.6602L24.4849 83.6772C24.4849 83.6772 17.6278 77.7367 18.0578 68.9447C18.451 60.8883 23.888 52.0907 33.7096 53.3099Z" fill="#FFC17C"/>
  <path d="M43.6614 68.7324C43.6614 68.7324 38.7166 65.3039 39.1805 59.1739C39.1805 59.1739 37.9274 67.6122 28.2387 69.5896L25.5372 75.8526C25.5372 75.8526 24.417 84.554 30.4819 91.8042C30.4819 91.8042 22.3095 93.2554 17.6278 86.6643C12.9489 80.0732 13.4751 61.618 23.0337 55.0919C32.5922 48.5658 43.0051 55.0919 43.6642 60.891C44.3233 66.69 43.6614 68.7324 43.6614 68.7324Z" fill="#1F2937"/>
  <path d="M35.7039 92.7263C35.7039 92.7263 42.2781 95.4957 43.0051 95.8889C43.7293 96.285 53.0247 113.094 53.0247 113.094C53.0247 113.094 54.0148 112.698 54.541 112.961C55.0671 113.224 54.937 115.795 54.937 115.795L54.3543 130.316C54.3288 130.978 53.5 131.255 53.0813 130.743L43.3389 118.828" stroke="#9CA3AF" stroke-width="1.13153" stroke-miterlimit="10" stroke-linecap="round" stroke-linejoin="round"/>
  <path d="M40.7619 103.009C40.7619 103.009 43.6614 115.071 43.7293 116.915C43.7943 118.76 40.3687 130.429 40.3687 130.429L41.4889 142.163" stroke="#9CA3AF" stroke-width="1.13153" stroke-miterlimit="10" stroke-linecap="round" stroke-linejoin="round"/>
  <path d="M18.9432 131.679L47.2851 137.676L56.9087 132.666L62.7078 137.413L64.3174 139.968C64.637 140.477 64.3937 141.153 63.8223 141.34C63.4546 141.458 63.0529 141.34 62.8125 141.037L61.3924 139.258L58.0968 138.202L48.8692 143.212L45.8367 142.42L11.2969 140.969L18.9432 131.679Z" fill="#FFC17C"/>
  <path d="M18.7452 90.302L10.966 91.9682C7.76658 92.6528 5.17257 95.029 4.28715 98.1803C3.86282 99.6908 3.59691 101.484 3.71855 103.501C4.11459 110.027 7.97026 138.106 8.36629 139.588C8.76232 141.071 11.0367 142.259 11.0367 142.259L18.9461 131.679C18.9461 131.679 20.4283 128.91 19.9361 127.625C19.4411 126.341 17.9588 125.945 17.9588 125.945L15.2884 105.083" stroke="#9CA3AF" stroke-width="1.13153" stroke-miterlimit="10" stroke-linecap="round" stroke-linejoin="round"/>
  <path d="M41.4691 74.7295C41.4691 74.7295 42.8382 76.837 42.6826 77.3122C42.527 77.7874 39.6247 77.5753 39.6247 77.5753" stroke="#1F2937" stroke-width="0.848644" stroke-miterlimit="10" stroke-linecap="round"/>
  <path d="M31.9954 77.5637C31.9954 77.5637 32.6545 80.7263 36.4762 80.7263" stroke="#1F2937" stroke-width="0.848644" stroke-miterlimit="10" stroke-linecap="round"/>
  <path d="M36.3772 72.0873C37.0318 72.0873 37.5625 71.5567 37.5625 70.9021C37.5625 70.2475 37.0318 69.7168 36.3772 69.7168C35.7226 69.7168 35.1919 70.2475 35.1919 70.9021C35.1919 71.5567 35.7226 72.0873 36.3772 72.0873Z" fill="#1F2937"/>
  <path d="M18.12 90.78C18.12 90.78 16.5698 100.042 20.0323 100.831C23.4919 101.623 28.0407 96.4801 28.0407 96.4801C28.0407 96.4801 31.4013 101.029 35.0618 100.831C38.7223 100.633 36.0519 93.7107 36.0519 93.7107" stroke="#9CA3AF" stroke-width="1.13153" stroke-miterlimit="10" stroke-linecap="round" stroke-linejoin="round"/>
  <path d="M69.4658 141.371L77.197 112.706C77.4176 111.886 78.1616 111.314 79.0131 111.314C82.4897 111.314 91.3467 111.314 95.2957 111.314C96.2801 111.314 96.9958 112.251 96.7384 113.201L89.1402 141.371H69.4658Z" fill="#374151"/>
  <path d="M29.0279 69.5243C29.0279 69.5243 26.3971 65.9996 23.359 67.216C20.0295 68.5512 20.4255 74.4323 25.7323 75.9825L29.0279 69.5243Z" fill="#FFC17C"/>
  <path d="M18.7791 90.384C18.7791 90.384 21.6787 96.0869 27.8766 95.855C34.0717 95.623 35.588 92.8225 35.588 92.8225" stroke="#9CA3AF" stroke-width="1.13153" stroke-miterlimit="10" stroke-linecap="round" stroke-linejoin="round"/>
  <path d="M65.8336 88.0447C65.3923 88.3049 65.1604 88.8113 65.2537 89.3007C65.3556 89.8325 65.8223 90.237 66.3796 90.2653C65.7912 90.5963 65.5281 91.2865 65.7346 91.8749C65.91 92.3728 66.3966 92.7235 66.9595 92.7433C66.9227 92.7773 66.3654 93.3148 66.5097 94.0955C66.6059 94.6132 66.9737 95.046 67.4744 95.2214C67.0529 95.6174 66.8888 96.2171 67.0557 96.7659C67.2283 97.3345 67.7205 97.7503 68.3117 97.8295" stroke="#1F2937" stroke-width="0.848644" stroke-miterlimit="10" stroke-linecap="round" stroke-linejoin="round"/>
  <path d="M29.755 70.1156C29.755 70.1156 26.9856 66.424 24.1511 67.0181C21.3166 67.6121 20.2388 71.3292 22.2388 73.5442C24.6772 76.2457 27.0506 76.1806 27.0506 76.1806" stroke="#1F2937" stroke-width="0.848644" stroke-miterlimit="10" stroke-linecap="round"/>
  <path d="M55.6244 143.249H87.1629C88.2548 143.249 89.1402 142.363 89.1402 141.271H53.6471C53.6471 142.363 54.5325 143.249 55.6244 143.249Z" fill="#374151"/>
  <path d="M79.4798 112.859L72.0966 140.279" stroke="white" stroke-width="0.565763" stroke-miterlimit="10" stroke-linecap="round"/>
  <path d="M121.963 90.0562L115.839 91.6715L115.092 90.7691C114.153 89.6347 113.505 88.2882 113.208 86.8483L112.325 82.5655L116.829 78.7862L121.672 78.6108L121.822 80.5146C121.822 80.5146 118.41 81.6518 117.988 85.0124L121.963 90.0562Z" fill="#FFC17C"/>
  <path d="M120.817 75.5638L122.09 79.0122C122.319 79.6317 122.003 80.3106 121.363 80.5708C120.69 80.8452 119.909 80.551 119.621 79.9174L118.11 76.6048C117.875 76.0872 118.116 75.4875 118.656 75.247L119.298 74.9613C119.898 74.6982 120.602 74.9783 120.817 75.5638Z" fill="#FFC17C"/>
  <path d="M118.116 76.325L119.295 79.7111C119.508 80.3193 119.213 80.9869 118.622 81.2415C118 81.5102 117.276 81.2217 117.01 80.5994L115.612 77.3491C115.394 76.8427 115.618 76.2515 116.119 76.0167L116.713 75.7366C117.261 75.4764 117.915 75.7508 118.116 76.325Z" fill="#FFC17C"/>
  <path d="M115.94 77.8072L117.12 81.1933C117.332 81.8015 117.038 82.4691 116.447 82.7237C115.824 82.9924 115.1 82.7039 114.834 82.0815L113.437 78.8312C113.219 78.3249 113.443 77.7337 113.943 77.4989L114.537 77.2188C115.086 76.9586 115.74 77.233 115.94 77.8072Z" fill="#FFC17C"/>
  <path d="M114.062 79.7847L115.219 83.3066L113.044 84.2457L111.556 80.8059C111.338 80.2995 111.561 79.7083 112.062 79.4735L112.656 79.1935C113.208 78.936 113.861 79.2104 114.062 79.7847Z" fill="#FFC17C"/>
  <path d="M121.491 78.6277C121.737 79.4282 121.457 80.2005 120.897 80.3816C120.212 80.6022 119.479 80.2825 119.225 79.4C119.443 80.076 119.095 80.7946 118.484 81.0322C117.816 81.2924 117.007 80.9105 116.778 80.1666C117.273 81.0039 116.882 81.977 116.26 82.2175C115.677 82.4409 114.806 82.059 114.529 81.2047C115.015 82.0166 114.648 82.9925 113.986 83.2556C113.443 83.4706 112.701 83.2104 112.331 82.5626" stroke="#1F2937" stroke-width="0.848644" stroke-miterlimit="10" stroke-linecap="round" stroke-linejoin="round"/>
  <path d="M163.886 81.3405L163.691 90.1211L155.781 98.6245L154.545 93.8636V88.4748C154.545 88.4748 150.902 88.7209 150.112 88.7209C149.32 88.7209 146.158 84.8171 145.021 82.5908C143.883 80.3674 144.376 78.3391 144.376 76.4608C144.376 74.5824 143.255 69.5415 143.323 66.509C143.388 63.4765 147.091 57.57 153.142 56.8175C162.964 55.5983 166.624 65.2558 167.15 73.1001C167.524 78.6475 163.886 81.3405 163.886 81.3405Z" fill="#FFC17C"/>
  <path d="M123.021 88.1125L113.595 90.8141L120.781 122.188C120.781 122.188 121.836 124.497 124.011 124.166L143.762 110.76L143.029 143.297C143.029 143.297 182.627 142.884 182.678 142.819C182.726 142.754 187.128 142.505 187.077 136.078L182.709 100.896C182.709 100.896 182.347 98.7857 180.667 97.9625L165.804 92.9527L166.067 92.3756L163.892 89.9032L155.736 98.6046C155.736 98.6046 154.534 91.1083 154.5 91.1733C154.466 91.2384 151.798 93.3147 151.765 93.3826C151.731 93.4477 151.688 93.8183 151.688 93.8183L145.651 94.7518L127.971 108.545L123.021 88.1125Z" fill="#E5E7EB"/>
  <path d="M153.309 74.8597C153.817 74.8597 154.228 74.4481 154.228 73.9404C154.228 73.4326 153.817 73.021 153.309 73.021C152.801 73.021 152.39 73.4326 152.39 73.9404C152.39 74.4481 152.801 74.8597 153.309 74.8597Z" fill="#1F2937"/>
  <path d="M145.038 74.8597C145.545 74.8597 145.957 74.4481 145.957 73.9404C145.957 73.4326 145.545 73.021 145.038 73.021C144.53 73.021 144.118 73.4326 144.118 73.9404C144.118 74.4481 144.53 74.8597 145.038 74.8597Z" fill="#1F2937"/>
  <path d="M151.629 93.8126L145.646 94.7518L127.966 108.545L123.021 88.1125L113.595 90.8141L120.88 122.633C120.88 122.633 121.672 124.214 123.779 124.084C125.889 123.951 143.719 110.785 143.719 110.785L143.026 142.853" stroke="#9CA3AF" stroke-width="1.13153" stroke-miterlimit="10" stroke-linecap="round" stroke-linejoin="round"/>
  <path d="M153.951 140.777C153.615 140.89 143.991 141.269 143.991 141.269L140.837 139.207C140.141 138.751 139.219 138.873 138.667 139.492L137.239 141.091C137.009 141.345 136.678 141.487 136.336 141.473C135.389 141.436 134.891 140.333 135.49 139.597L138.851 135.467C139.199 135.04 139.736 134.808 140.288 134.853L154.302 135.985L153.951 140.777Z" fill="#FFC17C"/>
  <path d="M166.013 93.0205L180.222 97.6965C181.58 98.2934 182.531 99.5494 182.732 101.02C183.846 109.247 187.458 136.185 187.122 137.775C186.726 139.654 185.64 142.522 182.672 142.819C179.705 143.116 153.603 142.952 153.603 142.952L154.197 135.142L176.016 133.198L173.28 111.215" stroke="#9CA3AF" stroke-width="1.13153" stroke-miterlimit="10" stroke-linecap="round" stroke-linejoin="round"/>
  <path d="M151.762 93.3856L150.591 99.8947L154.002 96.8792L155.733 98.6076L154.497 91.1763L151.762 93.3856Z" stroke="#9CA3AF" stroke-width="1.13153" stroke-miterlimit="10" stroke-linecap="round" stroke-linejoin="round"/>
  <path d="M156.243 98.5905L163.889 89.906L166.064 92.3784L163.049 101.128L159.012 97.6032L156.243 98.5905Z" stroke="#9CA3AF" stroke-width="1.13153" stroke-miterlimit="10" stroke-linecap="round" stroke-linejoin="round"/>
  <path d="M145.499 78.3899C145.499 78.3899 143.422 79.4762 143.422 80.6643C143.422 81.8524 146.981 81.3573 146.981 81.3573" stroke="#1F2937" stroke-width="0.848644" stroke-miterlimit="10" stroke-linecap="round"/>
  <path d="M153.886 78.4212C156.044 78.4212 157.793 76.3264 157.793 73.7423C157.793 71.1583 156.044 69.0635 153.886 69.0635C151.729 69.0635 149.98 71.1583 149.98 73.7423C149.98 76.3264 151.729 78.4212 153.886 78.4212Z" stroke="#1F2937" stroke-width="0.848644" stroke-miterlimit="10" stroke-linecap="round"/>
  <path d="M144.381 78.4212C146.275 78.4212 147.81 76.3264 147.81 73.7423C147.81 71.1583 146.275 69.0635 144.381 69.0635C142.488 69.0635 140.953 71.1583 140.953 73.7423C140.953 76.3264 142.488 78.4212 144.381 78.4212Z" stroke="#1F2937" stroke-width="0.848644" stroke-miterlimit="10" stroke-linecap="round"/>
  <path d="M151.233 83.4817L155.088 81.5525C155.088 81.5525 154.989 83.8269 153.383 84.3445C151.985 84.7971 151.233 83.4817 151.233 83.4817Z" stroke="#1F2937" stroke-width="0.848644" stroke-miterlimit="10" stroke-linecap="round" stroke-linejoin="round"/>
  <path d="M143.569 65.1398C143.569 65.1398 133.338 57.7255 137.719 53.4398C141.654 49.5955 145.151 54.8571 145.151 54.8571C145.151 54.8571 144.161 49.2702 148.265 48.8261C152.418 48.3763 154.197 53.966 154.197 53.966L165.332 53.7425C167.363 53.7029 169.255 54.925 169.92 56.8457C170.251 57.8019 170.282 58.9306 169.623 60.1611C169.623 60.1611 173.577 61.8754 173.051 65.038C172.525 68.2006 164.384 78.7323 164.384 78.7323L164.087 70.1298C164.087 70.1298 160.395 67.8894 160.132 64.4609L143.569 65.1398Z" fill="#1F2937"/>
  <path d="M157.694 72.093H165.818" stroke="#1F2937" stroke-width="0.848644" stroke-miterlimit="10" stroke-linecap="round"/>
  <path d="M147.674 72.093H150.178" stroke="#1F2937" stroke-width="0.848644" stroke-miterlimit="10" stroke-linecap="round"/>
  <path d="M163.218 74.158C163.218 74.158 164.002 71.0718 166.904 71.0718C169.807 71.0718 170.879 77.9854 163.233 81.4875" fill="#FFC17C"/>
  <path d="M136.458 141.371L129.615 116.008C129.42 115.281 128.761 114.774 128.008 114.774C124.93 114.774 117.095 114.774 113.601 114.774C112.73 114.774 112.096 115.603 112.322 116.443L119.046 141.371H136.458Z" fill="#374151"/>
  <path d="M143.818 105.974L143.719 110.785" stroke="#9CA3AF" stroke-width="1.13153" stroke-miterlimit="10" stroke-linecap="round" stroke-linejoin="round"/>
  <path d="M163.122 73.595C163.122 73.595 165.125 70.308 167.546 71.2471C169.968 72.1863 169.377 76.9896 166.556 79.5101C164.537 81.3177 163.36 81.5214 163.36 81.5214" stroke="#1F2937" stroke-width="0.848644" stroke-miterlimit="10" stroke-linecap="round"/>
  <path d="M123.923 58.5798L123.638 63.3831C123.607 63.8951 123.909 64.3704 124.387 64.5571L128.868 66.3138C129.937 66.7324 129.847 68.2741 128.735 68.5655L124.079 69.779C123.581 69.9092 123.225 70.342 123.194 70.8568L122.908 75.6602C122.84 76.8058 121.343 77.1962 120.727 76.2287L118.133 72.1751C117.856 71.7422 117.332 71.5357 116.834 71.6659L112.178 72.8794C111.066 73.168 110.235 71.8667 110.965 70.9785L114.02 67.2586C114.345 66.8625 114.379 66.2996 114.102 65.8668L111.508 61.8131C110.888 60.8457 111.87 59.6519 112.939 60.0706L117.42 61.8272C117.898 62.0139 118.441 61.8725 118.769 61.4765L121.824 57.7566C122.551 56.8683 123.991 57.4313 123.923 58.5798Z" fill="#FBBF24"/>
  <path d="M124.8 83.9912L121.963 90.0562L117.986 85.0124C118.407 81.6518 121.819 80.5146 121.819 80.5146L121.669 78.6108C121.027 77.2303 121.01 75.8669 121.205 74.9107C121.278 74.5486 121.459 74.2318 121.717 73.9942C121.971 73.7537 122.3 73.5925 122.665 73.5416C122.928 73.5048 123.165 73.7 123.188 73.9631C123.332 75.6377 124.744 78.1469 124.744 78.1469L124.8 83.9912Z" fill="#FFC17C"/>
  <path d="M121.324 77.697L121.819 80.5145C121.819 80.5145 118.308 81.7507 118.011 84.9133" stroke="#1F2937" stroke-width="0.848644" stroke-miterlimit="10" stroke-linecap="round" stroke-linejoin="round"/>
  <path d="M150.076 143.249H121.018C119.926 143.249 119.041 142.364 119.041 141.272H152.056C152.053 142.364 151.168 143.249 150.076 143.249Z" fill="#374151"/>
  <path d="M127.397 116.486L133.923 141.006" stroke="white" stroke-width="0.565763" stroke-miterlimit="10" stroke-linecap="round"/>
</svg>