<svg xmlns="http://www.w3.org/2000/svg" width="49" height="12" viewBox="0 0 49 12" fill="none">
  <path d="M49 4.76025L39.875 11.8361L38.3096 0.395722L49 4.76025ZM1.30309 5.30729C1.5496 5.3857 1.84355 5.46438 2.18689 5.54163L1.7479 7.49285C1.36152 7.40593 1.0101 7.31283 0.696911 7.21322L1.30309 5.30729ZM4.08146 5.87548C4.66926 5.95754 5.32086 6.03299 6.03555 6.10034L5.84793 8.09152C5.10789 8.02179 4.42632 7.94302 3.80491 7.85627L4.08146 5.87548ZM8.00873 6.25449C8.63425 6.29434 9.29502 6.3287 9.99055 6.35698L9.9093 8.35533C9.1995 8.32647 8.5234 8.29133 7.88158 8.25045L8.00873 6.25449ZM11.9763 6.41865C12.6185 6.43281 13.2852 6.44221 13.976 6.44651L13.9636 8.44647C13.2626 8.44211 12.5854 8.43257 11.9322 8.41817L11.9763 6.41865ZM15.9657 6.44498C16.613 6.44014 17.2786 6.4311 17.9625 6.41761L18.0019 8.41722C17.3101 8.43086 16.6363 8.44002 15.9806 8.44493L15.9657 6.44498ZM19.9645 6.3668C20.6155 6.34671 21.2812 6.32279 21.9615 6.29486L22.0435 8.29317C21.3566 8.32138 20.6841 8.34555 20.0262 8.36585L19.9645 6.3668ZM23.9563 6.20339C24.6095 6.17039 25.2749 6.13383 25.9524 6.09358L26.071 8.09006C25.3877 8.13065 24.7164 8.16754 24.0572 8.20084L23.9563 6.20339ZM27.9488 5.96653C28.6037 5.92213 29.269 5.87439 29.9448 5.8232L30.0958 7.81749C29.4149 7.86907 28.7443 7.91719 28.084 7.96195L27.9488 5.96653ZM31.9401 5.66441C32.5959 5.60975 33.2607 5.55193 33.9346 5.49085L34.1152 7.48269C33.4365 7.5442 32.7668 7.60244 32.1062 7.6575L31.9401 5.66441ZM35.9284 5.30312C36.5848 5.23904 37.2492 5.17193 37.9215 5.10173L38.1292 7.09092C37.4524 7.16158 36.7836 7.22913 36.1227 7.29366L35.9284 5.30312ZM39.9143 4.88713C40.5713 4.81423 41.2355 4.73844 41.9068 4.65968L42.1398 6.64606C41.4643 6.7253 40.796 6.80157 40.1348 6.87493L39.9143 4.88713ZM43.8952 4.42025C44.5502 4.33937 45.2116 4.25571 45.8795 4.16922L46.1363 6.15266C45.4646 6.23965 44.7992 6.3238 44.1403 6.40517L43.8952 4.42025Z" fill="#164E63"/>
</svg>