<svg xmlns="http://www.w3.org/2000/svg" width="49" height="13" viewBox="0 0 49 13" fill="none">
  <path d="M49 7.76025L39.8506 0.715974L38.3248 12.1617L49 7.76025ZM1.29722 8.71506C1.5593 8.63348 1.86288 8.54841 2.20862 8.46137L1.72035 6.52188C1.3451 6.61636 1.00554 6.7112 0.702785 6.80544L1.29722 8.71506ZM4.11141 8.05016C4.69951 7.93987 5.34892 7.8309 6.05938 7.72582L5.76674 5.74735C5.03306 5.85586 4.35819 5.96901 3.74274 6.08444L4.11141 8.05016ZM8.0234 7.46545C8.64662 7.39163 9.305 7.32141 9.99833 7.25591L9.81023 5.26478C9.1017 5.33171 8.42761 5.40359 7.78815 5.47933L8.0234 7.46545ZM11.9766 7.08976C12.617 7.04238 13.2821 6.99911 13.972 6.96064L13.8606 4.96374C13.1589 5.00288 12.4817 5.04692 11.829 5.09521L11.9766 7.08976ZM15.9565 6.86641C16.6029 6.84092 17.2683 6.8196 17.9525 6.80292L17.9037 4.80352C17.2096 4.82044 16.5342 4.84207 15.8777 4.86796L15.9565 6.86641ZM19.9541 6.76832C20.603 6.76159 21.2671 6.75899 21.9464 6.76083L21.9518 4.76084C21.2639 4.75897 20.5911 4.76161 19.9334 4.76842L19.9541 6.76832ZM23.9422 6.77868C24.5952 6.78852 25.261 6.80242 25.9396 6.82062L25.9933 4.82134C25.3068 4.80293 24.6332 4.78887 23.9723 4.77891L23.9422 6.77868ZM27.9376 6.8855C28.5925 6.91041 29.2584 6.93928 29.9353 6.97232L30.0328 4.97469C29.3487 4.94131 28.6757 4.91213 28.0136 4.88695L27.9376 6.8855ZM31.9323 7.08016C32.588 7.11894 33.2534 7.16157 33.9285 7.20823L34.0664 5.21299C33.3848 5.16587 32.7127 5.12282 32.0504 5.08365L31.9323 7.08016ZM35.9238 7.35582C36.5801 7.40751 37.2449 7.46296 37.9184 7.52231L38.094 5.53003C37.4144 5.47014 36.7433 5.41418 36.0809 5.362L35.9238 7.35582ZM39.9125 7.70715C40.5694 7.77101 41.2341 7.83853 41.9064 7.90985L42.1174 5.921C41.4392 5.84907 40.7687 5.78096 40.106 5.71653L39.9125 7.70715ZM43.8982 8.12972C44.5525 8.20476 45.2137 8.28334 45.882 8.36558L46.1263 6.38056C45.4526 6.29765 44.7858 6.21841 44.126 6.14274L43.8982 8.12972Z" fill="#164E63"/>
</svg>