<svg xmlns="http://www.w3.org/2000/svg" width="42" height="52" viewBox="0 0 42 52" fill="none">
  <path fill-rule="evenodd" clip-rule="evenodd" d="M0.145844 0.144043H41.854V51.4774H0.145844V0.144043ZM1.88368 1.74821V49.8732H40.1162V1.74821H1.88368ZM36.6405 41.8525H13.1797V45.0609H36.6405V41.8525ZM11.229 41.2842C10.932 40.9873 10.4332 40.9713 10.1149 41.2483L6.93255 44.0174L5.9195 42.6953L5.85147 42.618C5.58535 42.3543 5.1446 42.308 4.81985 42.5243C4.46558 42.7604 4.38353 43.2196 4.63658 43.55L6.17221 45.5552L6.23559 45.6279C6.52713 45.9221 7.0283 45.9467 7.35154 45.6653L11.1906 42.3233L11.2639 42.2503C11.5096 41.9699 11.5013 41.5563 11.229 41.2842ZM36.6405 35.4359H13.1797V38.6442H36.6405V35.4359ZM9.50526 34.8165L9.43606 34.7607C9.17116 34.5746 8.79143 34.5932 8.5495 34.8165L7.09713 36.1582L5.64339 34.8165L5.57418 34.7607C5.30929 34.5746 4.92956 34.5932 4.68763 34.8165C4.4237 35.0601 4.4237 35.4551 4.68763 35.6988L6.14063 37.0392L4.68763 38.3813C4.4237 38.625 4.4237 39.0199 4.68763 39.2636C4.92956 39.4869 5.30929 39.5055 5.57418 39.3194L5.64339 39.2636L7.09713 37.9219L8.5495 39.2636C8.79143 39.4869 9.17116 39.5055 9.43606 39.3194L9.50526 39.2636C9.7472 39.0402 9.76736 38.6897 9.56575 38.4452L9.50526 38.3813L8.05139 37.04L9.50526 35.6988L9.56575 35.6349C9.76736 35.3903 9.7472 35.0398 9.50526 34.8165ZM31.4262 17.79C31.4262 12.4743 26.7579 8.16502 20.9992 8.16502C15.2405 8.16502 10.5721 12.4743 10.5721 17.79C10.5721 23.1058 15.2405 27.415 20.9992 27.415C26.7579 27.415 31.4262 23.1058 31.4262 17.79ZM20.5369 12.1754H21.3572V13.1636C21.7743 13.2064 22.1658 13.2898 22.532 13.4139C22.8981 13.5379 23.2201 13.709 23.4982 13.9272C23.7762 14.1454 24.0033 14.417 24.1794 14.7421C24.3555 15.0672 24.4575 15.4522 24.4853 15.8971H22.5111C22.5018 15.5549 22.386 15.264 22.1635 15.0244C21.9411 14.7849 21.6723 14.6651 21.3572 14.6651V16.9366C21.4684 16.9623 21.5819 16.9879 21.6978 17.0136C21.8136 17.0393 21.9365 17.0692 22.0662 17.1034C22.7521 17.2746 23.2804 17.4863 23.6511 17.7387C24.0219 17.9911 24.2953 18.2542 24.4714 18.5279C24.6475 18.8017 24.7518 19.0755 24.7842 19.3493C24.8166 19.6231 24.8329 19.8669 24.8329 20.0808C24.8329 20.269 24.7819 20.5064 24.6799 20.793C24.578 21.0796 24.3949 21.3598 24.1308 21.6336C23.8666 21.9074 23.5121 22.1512 23.0672 22.3651C22.6223 22.579 22.0523 22.7073 21.3572 22.7501V23.8409H20.5369V22.7501C19.4988 22.6817 18.6878 22.3865 18.1039 21.8646C17.52 21.3427 17.1817 20.577 17.089 19.5674H19.0493C19.04 20.0551 19.1791 20.4401 19.4664 20.7224C19.7537 21.0048 20.1106 21.1844 20.5369 21.2614V18.5793C20.4906 18.5622 20.428 18.5429 20.3492 18.5215C20.2704 18.5001 20.1847 18.4809 20.092 18.4638C19.7491 18.3782 19.4108 18.2777 19.0771 18.1622C18.7435 18.0467 18.4446 17.8927 18.1804 17.7002C17.9162 17.5077 17.7054 17.2681 17.5478 16.9815C17.3903 16.6949 17.3115 16.3377 17.3115 15.9099C17.3115 15.4736 17.4018 15.0886 17.5826 14.7549C17.7633 14.4213 18.002 14.1411 18.2986 13.9144C18.5952 13.6876 18.9381 13.5122 19.3274 13.3882C19.7167 13.2641 20.1198 13.1893 20.5369 13.1636V12.1754ZM22.518 19.253C22.291 19.0862 21.904 18.9343 21.3572 18.7974V21.2614C21.524 21.2443 21.6978 21.208 21.8785 21.1524C22.0593 21.0968 22.2215 21.0176 22.3651 20.9149C22.5088 20.8123 22.627 20.6861 22.7196 20.5364C22.8123 20.3866 22.8587 20.2091 22.8587 20.0038C22.8587 19.6701 22.7451 19.4199 22.518 19.253ZM20.5369 16.7569V14.6651C20.3793 14.6651 20.2264 14.6865 20.0781 14.7293C19.9298 14.7721 19.7954 14.8384 19.6749 14.9282C19.5545 15.018 19.4594 15.1292 19.3899 15.2619C19.3204 15.3945 19.2857 15.5506 19.2857 15.7303C19.2857 16.0126 19.383 16.2308 19.5776 16.3848C19.7723 16.5388 20.092 16.6628 20.5369 16.7569Z" fill="url(#paint0_linear_26_4747)"/>
  <defs>
    <linearGradient id="paint0_linear_26_4747" x1="9.7527" y1="21.5266" x2="51.1179" y2="26.4255" gradientUnits="userSpaceOnUse">
      <stop stop-color="#06B6D4"/>
      <stop offset="1" stop-color="#06B6D4" stop-opacity="0.51"/>
    </linearGradient>
  </defs>
</svg>