<svg width="440" height="295" viewBox="0 0 440 295" fill="none" xmlns="http://www.w3.org/2000/svg">
<path d="M384.63 47.9389C331.483 16.3956 262.827 33.9152 231.283 87.0623C206.549 128.739 157.406 149.263 110.377 137.547L97.0562 134.229C86.5342 131.647 74.9439 131.43 63.6965 134.229C26.698 143.443 4.18591 180.915 13.417 217.908C22.6709 254.981 60.6175 277.236 97.696 267.999L153.185 254.238C195.959 243.63 240.492 242.191 283.865 250.005L307.514 254.266C352.138 262.269 399.253 242.556 423.753 201.274C455.296 148.132 437.777 79.4764 384.63 47.9389Z" fill="url(#paint0_linear_79_3804)" fill-opacity="0.32"/>
<path d="M366.185 294.001H357.605C353.989 294.001 351.053 291.071 351.053 287.449V213.321C351.053 209.705 353.983 206.769 357.605 206.769H366.185C369.801 206.769 372.737 209.699 372.737 213.321V287.449C372.737 291.065 369.806 294.001 366.185 294.001Z" fill="#155E75"/>
<path d="M405.668 294.001H368.447C364.831 294.001 361.895 291.071 361.895 287.449V213.321C361.895 209.705 364.825 206.769 368.447 206.769H405.668C409.284 206.769 412.22 209.699 412.22 213.321V287.449C412.22 291.065 409.284 294.001 405.668 294.001Z" fill="#164E63"/>
<path d="M369.932 223.214C371.481 223.214 372.737 221.959 372.737 220.41C372.737 218.861 371.481 217.605 369.932 217.605C368.383 217.605 367.127 218.861 367.127 220.41C367.127 221.959 368.383 223.214 369.932 223.214Z" stroke="#06B6D4" stroke-width="1.71368" stroke-miterlimit="10" stroke-linecap="round" stroke-linejoin="round"/>
<path d="M376.084 220.41H406.599" stroke="#06B6D4" stroke-width="1.71368" stroke-miterlimit="10" stroke-linecap="round" stroke-linejoin="round"/>
<path d="M369.932 241.048C371.481 241.048 372.737 239.793 372.737 238.244C372.737 236.695 371.481 235.439 369.932 235.439C368.383 235.439 367.127 236.695 367.127 238.244C367.127 239.793 368.383 241.048 369.932 241.048Z" stroke="#06B6D4" stroke-width="1.71368" stroke-miterlimit="10" stroke-linecap="round" stroke-linejoin="round"/>
<path d="M376.084 238.244H406.599" stroke="#06B6D4" stroke-width="1.71368" stroke-miterlimit="10" stroke-linecap="round" stroke-linejoin="round"/>
<path d="M369.932 258.882C371.481 258.882 372.737 257.626 372.737 256.077C372.737 254.528 371.481 253.272 369.932 253.272C368.383 253.272 367.127 254.528 367.127 256.077C367.127 257.626 368.383 258.882 369.932 258.882Z" stroke="#06B6D4" stroke-width="1.71368" stroke-miterlimit="10" stroke-linecap="round" stroke-linejoin="round"/>
<path d="M376.084 256.078H406.599" stroke="#06B6D4" stroke-width="1.71368" stroke-miterlimit="10" stroke-linecap="round" stroke-linejoin="round"/>
<path d="M369.932 276.721C371.481 276.721 372.737 275.466 372.737 273.917C372.737 272.368 371.481 271.112 369.932 271.112C368.383 271.112 367.127 272.368 367.127 273.917C367.127 275.466 368.383 276.721 369.932 276.721Z" stroke="#06B6D4" stroke-width="1.71368" stroke-miterlimit="10" stroke-linecap="round" stroke-linejoin="round"/>
<path d="M376.084 273.917H406.599" stroke="#06B6D4" stroke-width="1.71368" stroke-miterlimit="10" stroke-linecap="round" stroke-linejoin="round"/>
<path d="M367.121 229.658H406.599" stroke="#155E75" stroke-width="1.71368" stroke-miterlimit="10" stroke-linecap="round" stroke-linejoin="round"/>
<path d="M367.122 247.498H406.599" stroke="#155E75" stroke-width="1.71368" stroke-miterlimit="10" stroke-linecap="round" stroke-linejoin="round"/>
<path d="M367.122 265.332H406.599" stroke="#155E75" stroke-width="1.71368" stroke-miterlimit="10" stroke-linecap="round" stroke-linejoin="round"/>
<path d="M367.122 283.166H406.599" stroke="#155E75" stroke-width="1.71368" stroke-miterlimit="10" stroke-linecap="round" stroke-linejoin="round"/>
<path d="M405.668 294.001H368.053C364.437 294.001 361.501 291.071 361.501 287.449V213.321C361.501 209.705 364.431 206.769 368.053 206.769H405.668C409.284 206.769 412.22 209.699 412.22 213.321V287.449C412.22 291.065 409.284 294.001 405.668 294.001Z" stroke="#06B6D4" stroke-width="1.71368" stroke-miterlimit="10"/>
<path d="M275.131 92.632H161.268C156.538 92.632 152.699 88.7934 152.699 84.0636V10.3409C152.699 5.61111 156.538 1.77246 161.268 1.77246H275.131C279.861 1.77246 283.699 5.61111 283.699 10.3409V84.0636C283.699 88.7934 279.861 92.632 275.131 92.632Z" fill="#CFFAFE" stroke="#06B6D4" stroke-width="1.71368" stroke-miterlimit="10"/>
<path d="M246.889 46.6933H230.98C230.98 38.4676 224.309 31.7957 216.083 31.7957C207.857 31.7957 201.185 38.4676 201.185 46.6933C201.185 50.6519 202.728 54.2506 205.252 56.9126L193.674 67.8345C188.281 62.1165 185.282 54.5477 185.282 46.6933C185.282 29.7907 199.186 15.887 216.089 15.887C232.98 15.8813 246.889 29.785 246.889 46.6933Z" fill="#6B21A8"/>
<path d="M193.365 67.2638L205.321 56.7646C210.748 62.9453 220.167 63.5565 226.348 58.1298C232.528 52.7031 233.14 43.2836 227.713 37.1029C225.102 34.1268 221.567 32.4417 217.916 32.1047L219.413 16.2588C227.239 16.9957 234.488 20.7029 239.669 26.6037C250.825 39.3078 249.551 58.9238 236.847 70.0799C224.143 81.236 204.521 79.9679 193.365 67.2638Z" fill="#67E8F9"/>
<path d="M205.247 56.9128L193.668 67.8347C188.275 62.1167 185.276 54.5479 185.276 46.6935C185.276 40.2672 187.281 34.0065 191.012 28.7798L203.961 38.0337C202.208 40.4728 201.179 43.4661 201.179 46.6935C201.185 50.6521 202.727 54.2509 205.247 56.9128Z" fill="#0891B2"/>
<path d="M222.269 33.1387C229.752 36.5546 233.048 45.3915 229.632 52.8803C226.216 60.3634 217.38 63.6594 209.891 60.2435" stroke="#0891B2" stroke-width="1.71368" stroke-miterlimit="10" stroke-linecap="round" stroke-linejoin="round"/>
<path d="M136.1 92.632H33.1414C28.4116 92.632 24.5729 88.7934 24.5729 84.0636V10.3409C24.5729 5.61111 28.4116 1.77246 33.1414 1.77246H136.1C140.829 1.77246 144.668 5.61111 144.668 10.3409V84.0636C144.668 88.7934 140.835 92.632 136.1 92.632Z" fill="#A5F3FC" stroke="#06B6D4" stroke-width="1.71368" stroke-miterlimit="10"/>
<path d="M36.4259 84.5377H132.815C135.374 84.5377 137.442 82.4641 137.442 79.9107V14.4937C137.442 11.9345 135.368 9.8667 132.815 9.8667H36.4259C33.8668 9.8667 31.799 11.9403 31.799 14.4937V79.9107C31.799 82.4698 33.8668 84.5377 36.4259 84.5377Z" fill="#155E75"/>
<path d="M36.5345 70.7254L47.5306 49.9498C49.3985 46.4196 54.0655 46.4196 55.9391 49.9498C57.807 53.48 62.4797 53.48 64.3476 49.9498L71.2423 36.9144C73.1102 33.3842 77.7829 33.3842 79.6508 36.9144L82.3755 42.0669C84.2435 45.5971 88.9161 45.5971 90.784 42.0669L92.492 38.8452C98.2271 28.009 108.829 21.3313 120.299 21.3313H130.616" stroke="white" stroke-width="1.71368" stroke-miterlimit="10" stroke-linecap="round"/>
<path d="M47.4622 70.7258C50.9181 64.8764 56.8646 61.3462 63.2452 61.3462H81.2446C90.7041 61.3462 99.3982 55.6911 103.9 46.6142L107.858 38.6342C111.308 31.6709 117.986 27.3296 125.241 27.3296H130.616" stroke="white" stroke-width="1.71368" stroke-miterlimit="10" stroke-linecap="round"/>
<path d="M401.441 92.632H300.591C295.861 92.632 292.022 88.7934 292.022 84.0636V10.3409C292.022 5.61111 295.861 1.77246 300.591 1.77246H401.447C406.176 1.77246 410.015 5.61111 410.015 10.3409V84.0636C410.009 88.7934 406.176 92.632 401.441 92.632Z" fill="#CFFAFE" stroke="#06B6D4" stroke-width="1.71368" stroke-miterlimit="10"/>
<path d="M358.987 83.7097H358.513C356.805 83.7097 355.417 82.3216 355.417 80.6137V13.7914C355.417 12.0834 356.805 10.6953 358.513 10.6953H358.987C360.695 10.6953 362.083 12.0834 362.083 13.7914V80.6137C362.083 82.3216 360.701 83.7097 358.987 83.7097Z" fill="#67E8F9"/>
<path d="M369.304 83.7102H368.829C367.121 83.7102 365.733 82.3221 365.733 80.6141V13.7919C365.733 12.0839 367.121 10.6958 368.829 10.6958H369.304C371.012 10.6958 372.4 12.0839 372.4 13.7919V80.6141C372.4 82.3221 371.012 83.7102 369.304 83.7102Z" fill="#67E8F9"/>
<path d="M379.62 83.7102H379.146C377.438 83.7102 376.05 82.3221 376.05 80.6141V13.7919C376.05 12.0839 377.438 10.6958 379.146 10.6958H379.62C381.328 10.6958 382.716 12.0839 382.716 13.7919V80.6141C382.716 82.3221 381.328 83.7102 379.62 83.7102Z" fill="#67E8F9"/>
<path d="M389.936 83.7102H389.462C387.754 83.7102 386.366 82.3221 386.366 80.6141V13.7919C386.366 12.0839 387.754 10.6958 389.462 10.6958H389.936C391.644 10.6958 393.032 12.0839 393.032 13.7919V80.6141C393.032 82.3221 391.644 83.7102 389.936 83.7102Z" fill="#67E8F9"/>
<path d="M400.253 83.7102H399.779C398.071 83.7102 396.683 82.3221 396.683 80.6141V13.7919C396.683 12.0839 398.071 10.6958 399.779 10.6958H400.253C401.961 10.6958 403.349 12.0839 403.349 13.7919V80.6141C403.349 82.3221 401.961 83.7102 400.253 83.7102Z" fill="#67E8F9"/>
<path d="M358.753 78.7398C361.286 78.7398 363.34 76.6862 363.34 74.1529C363.34 71.6196 361.286 69.5659 358.753 69.5659C356.22 69.5659 354.166 71.6196 354.166 74.1529C354.166 76.6862 356.22 78.7398 358.753 78.7398Z" stroke="#155E75" stroke-width="1.71368" stroke-miterlimit="10" stroke-linecap="round" stroke-linejoin="round"/>
<path d="M369.069 61.2716C371.603 61.2716 373.656 59.2179 373.656 56.6846C373.656 54.1513 371.603 52.0977 369.069 52.0977C366.536 52.0977 364.482 54.1513 364.482 56.6846C364.482 59.2179 366.536 61.2716 369.069 61.2716Z" stroke="#155E75" stroke-width="1.71368" stroke-miterlimit="10" stroke-linecap="round" stroke-linejoin="round"/>
<path d="M379.386 42.838C381.919 42.838 383.973 40.7843 383.973 38.251C383.973 35.7177 381.919 33.6641 379.386 33.6641C376.852 33.6641 374.799 35.7177 374.799 38.251C374.799 40.7843 376.852 42.838 379.386 42.838Z" stroke="#155E75" stroke-width="1.71368" stroke-miterlimit="10" stroke-linecap="round" stroke-linejoin="round"/>
<path d="M389.702 56.6905C392.235 56.6905 394.289 54.6369 394.289 52.1036C394.289 49.5703 392.235 47.5166 389.702 47.5166C387.169 47.5166 385.115 49.5703 385.115 52.1036C385.115 54.6369 387.169 56.6905 389.702 56.6905Z" stroke="#155E75" stroke-width="1.71368" stroke-miterlimit="10" stroke-linecap="round" stroke-linejoin="round"/>
<path d="M400.018 23.2391C402.552 23.2391 404.605 21.1855 404.605 18.6521C404.605 16.1188 402.552 14.0652 400.018 14.0652C397.485 14.0652 395.432 16.1188 395.432 18.6521C395.432 21.1855 397.485 23.2391 400.018 23.2391Z" stroke="#155E75" stroke-width="1.71368" stroke-miterlimit="10" stroke-linecap="round" stroke-linejoin="round"/>
<path d="M306.754 29.3912H341.462C343.924 29.3912 345.923 27.3919 345.923 24.9299V15.1505C345.923 12.6885 343.924 10.6892 341.462 10.6892H306.754C304.292 10.6892 302.293 12.6885 302.293 15.1505V24.9299C302.293 27.3976 304.286 29.3912 306.754 29.3912Z" fill="#155E75"/>
<path d="M306.754 56.5472H341.462C343.924 56.5472 345.923 54.5479 345.923 52.0859V42.3065C345.923 39.8445 343.924 37.8452 341.462 37.8452H306.754C304.292 37.8452 302.293 39.8445 302.293 42.3065V52.0859C302.293 54.5536 304.286 56.5472 306.754 56.5472Z" fill="#155E75"/>
<path d="M306.754 83.7093H341.462C343.924 83.7093 345.923 81.71 345.923 79.248V69.4686C345.923 67.0066 343.924 65.0073 341.462 65.0073H306.754C304.292 65.0073 302.293 67.0066 302.293 69.4686V79.248C302.293 81.71 304.286 83.7093 306.754 83.7093Z" fill="#155E75"/>
<path d="M338.52 22.2624H309.69C308.553 22.2624 307.628 21.337 307.628 20.2003V19.8861C307.628 18.7494 308.553 17.824 309.69 17.824H338.52C339.657 17.824 340.582 18.7494 340.582 19.8861V20.2003C340.582 21.337 339.662 22.2624 338.52 22.2624Z" fill="#67E8F9"/>
<path d="M338.52 49.424H309.69C308.553 49.424 307.628 48.4987 307.628 47.3619V47.0477C307.628 45.911 308.553 44.9856 309.69 44.9856H338.52C339.657 44.9856 340.582 45.911 340.582 47.0477V47.3619C340.582 48.4987 339.662 49.424 338.52 49.424Z" fill="#67E8F9"/>
<path d="M338.52 76.3747H309.69C308.553 76.3747 307.628 75.4493 307.628 74.3126V73.9984C307.628 72.8617 308.553 71.9363 309.69 71.9363H338.52C339.657 71.9363 340.582 72.8617 340.582 73.9984V74.3126C340.582 75.455 339.662 76.3747 338.52 76.3747Z" fill="#67E8F9"/>
<path d="M348.591 294.001H283.928C280.312 294.001 277.376 291.071 277.376 287.449V213.321C277.376 209.705 280.306 206.769 283.928 206.769H348.591C352.207 206.769 355.143 209.699 355.143 213.321V287.449C355.143 291.065 352.212 294.001 348.591 294.001Z" fill="#164E63"/>
<path d="M321.543 294.001H283.928C280.312 294.001 277.376 291.071 277.376 287.449V213.321C277.376 209.705 280.306 206.769 283.928 206.769H321.543C325.159 206.769 328.095 209.699 328.095 213.321V287.449C328.095 291.065 325.159 294.001 321.543 294.001Z" stroke="#06B6D4" stroke-width="1.71368" stroke-miterlimit="10"/>
<path d="M331.699 217.925H352.138" stroke="#FFF7EE" stroke-width="1.14246" stroke-miterlimit="10" stroke-linecap="round"/>
<path d="M331.7 282.846H352.138" stroke="#FFF7EE" stroke-width="1.14246" stroke-miterlimit="10" stroke-linecap="round"/>
<path d="M285.807 223.214C287.356 223.214 288.612 221.959 288.612 220.41C288.612 218.861 287.356 217.605 285.807 217.605C284.258 217.605 283.002 218.861 283.002 220.41C283.002 221.959 284.258 223.214 285.807 223.214Z" stroke="#06B6D4" stroke-width="1.71368" stroke-miterlimit="10" stroke-linecap="round" stroke-linejoin="round"/>
<path d="M291.959 220.41H322.474" stroke="#06B6D4" stroke-width="1.71368" stroke-miterlimit="10" stroke-linecap="round" stroke-linejoin="round"/>
<path d="M285.807 241.048C287.356 241.048 288.612 239.793 288.612 238.244C288.612 236.695 287.356 235.439 285.807 235.439C284.258 235.439 283.002 236.695 283.002 238.244C283.002 239.793 284.258 241.048 285.807 241.048Z" stroke="#06B6D4" stroke-width="1.71368" stroke-miterlimit="10" stroke-linecap="round" stroke-linejoin="round"/>
<path d="M291.959 238.244H322.474" stroke="#06B6D4" stroke-width="1.71368" stroke-miterlimit="10" stroke-linecap="round" stroke-linejoin="round"/>
<path d="M285.807 258.882C287.356 258.882 288.612 257.626 288.612 256.077C288.612 254.528 287.356 253.272 285.807 253.272C284.258 253.272 283.002 254.528 283.002 256.077C283.002 257.626 284.258 258.882 285.807 258.882Z" stroke="#06B6D4" stroke-width="1.71368" stroke-miterlimit="10" stroke-linecap="round" stroke-linejoin="round"/>
<path d="M291.959 256.078H322.474" stroke="#06B6D4" stroke-width="1.71368" stroke-miterlimit="10" stroke-linecap="round" stroke-linejoin="round"/>
<path d="M285.807 276.721C287.356 276.721 288.612 275.466 288.612 273.917C288.612 272.368 287.356 271.112 285.807 271.112C284.258 271.112 283.002 272.368 283.002 273.917C283.002 275.466 284.258 276.721 285.807 276.721Z" stroke="#06B6D4" stroke-width="1.71368" stroke-miterlimit="10" stroke-linecap="round" stroke-linejoin="round"/>
<path d="M291.959 273.917H322.474" stroke="#06B6D4" stroke-width="1.71368" stroke-miterlimit="10" stroke-linecap="round" stroke-linejoin="round"/>
<path d="M282.997 229.658H322.474" stroke="#155E75" stroke-width="1.71368" stroke-miterlimit="10" stroke-linecap="round" stroke-linejoin="round"/>
<path d="M282.997 247.498H322.474" stroke="#155E75" stroke-width="1.71368" stroke-miterlimit="10" stroke-linecap="round" stroke-linejoin="round"/>
<path d="M282.997 265.332H322.474" stroke="#155E75" stroke-width="1.71368" stroke-miterlimit="10" stroke-linecap="round" stroke-linejoin="round"/>
<path d="M282.997 283.166H322.474" stroke="#155E75" stroke-width="1.71368" stroke-miterlimit="10" stroke-linecap="round" stroke-linejoin="round"/>
<path d="M29.0343 279.103V223.773H102.654V279.103H29.0343Z" fill="#155E75" stroke="#155E75" stroke-width="0.571228"/>
<path d="M101.952 276.333H28.5431C26.1554 276.333 24.2189 278.269 24.2189 280.657V289.379C24.2189 291.767 26.1554 293.704 28.5431 293.704H101.952C104.339 293.704 106.276 291.767 106.276 289.379V280.657C106.276 278.269 104.339 276.333 101.952 276.333Z" fill="#1F2937"/>
<path d="M101.952 254.5H28.543C26.1553 254.5 24.2188 256.437 24.2188 258.825V267.547C24.2188 269.935 26.1553 271.872 28.543 271.872H101.952C104.339 271.872 106.276 269.935 106.276 267.547V258.825C106.276 256.437 104.339 254.5 101.952 254.5Z" fill="#1F2937"/>
<path d="M101.952 232.674H28.543C26.1553 232.674 24.2188 234.61 24.2188 236.998V245.721C24.2188 248.108 26.1553 250.045 28.543 250.045H101.952C104.339 250.045 106.276 248.108 106.276 245.721V236.998C106.276 234.61 104.339 232.674 101.952 232.674Z" fill="#1F2937"/>
<path d="M101.952 210.847H28.5431C26.1553 210.847 24.2189 212.784 24.2189 215.171V223.894C24.2189 226.282 26.1553 228.218 28.5431 228.218H101.952C104.339 228.218 106.276 226.282 106.276 223.894V215.171C106.276 212.778 104.339 210.847 101.952 210.847Z" fill="#1F2937"/>
<path d="M42.6238 217.125H95.5995" stroke="#06B6D4" stroke-width="1.71368" stroke-miterlimit="10"/>
<path d="M42.6238 221.895H70.3398" stroke="#06B6D4" stroke-width="1.71368" stroke-miterlimit="10"/>
<path d="M72.4304 221.895H74.3098" stroke="#06B6D4" stroke-width="1.71368" stroke-miterlimit="10"/>
<path d="M76.2348 221.895H78.1084" stroke="#06B6D4" stroke-width="1.71368" stroke-miterlimit="10"/>
<path d="M80.0336 221.895H81.9072" stroke="#06B6D4" stroke-width="1.71368" stroke-miterlimit="10"/>
<path d="M39.7162 217.125H34.9008V221.94H39.7162V217.125Z" stroke="#06B6D4" stroke-width="1.71368" stroke-miterlimit="10"/>
<path d="M42.6237 238.951H95.5994" stroke="#06B6D4" stroke-width="1.71368" stroke-miterlimit="10"/>
<path d="M42.6238 243.721H70.3398" stroke="#06B6D4" stroke-width="1.71368" stroke-miterlimit="10"/>
<path d="M72.4304 243.721H74.3098" stroke="#06B6D4" stroke-width="1.71368" stroke-miterlimit="10"/>
<path d="M76.2348 243.721H78.1084" stroke="#06B6D4" stroke-width="1.71368" stroke-miterlimit="10"/>
<path d="M80.0336 243.721H81.9072" stroke="#06B6D4" stroke-width="1.71368" stroke-miterlimit="10"/>
<path d="M39.7162 238.951H34.9007V243.767H39.7162V238.951Z" stroke="#06B6D4" stroke-width="1.71368" stroke-miterlimit="10"/>
<path d="M42.6237 260.778H95.5994" stroke="#06B6D4" stroke-width="1.71368" stroke-miterlimit="10"/>
<path d="M42.6237 265.553H70.3397" stroke="#06B6D4" stroke-width="1.71368" stroke-miterlimit="10"/>
<path d="M72.4304 265.553H74.3098" stroke="#06B6D4" stroke-width="1.71368" stroke-miterlimit="10"/>
<path d="M76.2348 265.553H78.1084" stroke="#06B6D4" stroke-width="1.71368" stroke-miterlimit="10"/>
<path d="M80.0335 265.553H81.9071" stroke="#06B6D4" stroke-width="1.71368" stroke-miterlimit="10"/>
<path d="M39.7162 260.778H34.9007V265.593H39.7162V260.778Z" stroke="#06B6D4" stroke-width="1.71368" stroke-miterlimit="10"/>
<path d="M42.9208 282.61H95.8965" stroke="#06B6D4" stroke-width="1.71368" stroke-miterlimit="10"/>
<path d="M42.9208 287.38H70.6425" stroke="#06B6D4" stroke-width="1.71368" stroke-miterlimit="10"/>
<path d="M72.7332 287.38H74.6068" stroke="#06B6D4" stroke-width="1.71368" stroke-miterlimit="10"/>
<path d="M76.5319 287.38H78.4055" stroke="#06B6D4" stroke-width="1.71368" stroke-miterlimit="10"/>
<path d="M80.3306 287.38H82.2099" stroke="#06B6D4" stroke-width="1.71368" stroke-miterlimit="10"/>
<path d="M40.0133 282.61H35.1978V287.425H40.0133V282.61Z" stroke="#06B6D4" stroke-width="1.71368" stroke-miterlimit="10"/>
<path d="M229.787 168.416C229.787 168.416 234.579 170.313 235.579 175.002C236.247 178.155 225.497 190.877 225.497 190.877L229.787 168.416Z" fill="#06B6D4"/>
<path d="M194.245 168.296C194.245 168.296 189.23 170.319 188.23 175.008C187.562 178.161 198.312 190.883 198.312 190.883L194.245 168.296Z" fill="#06B6D4"/>
<path d="M217.894 150.879C225.103 153.364 229.787 160.345 229.787 167.97V178.704C229.787 180.635 229.433 183.365 228.33 186.107C226.331 191.094 221.852 196.132 212.507 196.492C212.33 196.503 212.147 196.503 211.959 196.503C211.77 196.509 211.588 196.503 211.405 196.492C202.054 196.132 197.575 191.088 195.576 186.096C194.479 183.359 194.125 180.635 194.125 178.704V167.965C194.125 160.413 198.718 153.484 205.83 150.942C207.72 150.268 209.737 149.897 211.816 149.88C213.924 149.868 215.975 150.217 217.894 150.879Z" fill="#06B6D4"/>
<path d="M216.134 186.364H208.149C201.819 186.364 196.684 181.229 196.684 174.899V170.324C196.684 163.995 201.819 158.859 208.149 158.859H216.134C222.464 158.859 227.599 163.995 227.599 170.324V174.899C227.599 181.229 222.469 186.364 216.134 186.364Z" fill="#CFFAFE"/>
<path d="M216.134 186.364H208.149C201.819 186.364 196.684 181.229 196.684 174.899V170.324C196.684 163.995 201.819 158.859 208.149 158.859H216.134C222.464 158.859 227.599 163.995 227.599 170.324V174.899C227.599 181.229 222.469 186.364 216.134 186.364Z" stroke="#083344" stroke-width="1.71368" stroke-miterlimit="10" stroke-linecap="round" stroke-linejoin="round"/>
<path d="M207.229 179.366C207.657 179.726 209.537 181.223 212.284 181.097C214.626 180.989 216.192 179.777 216.677 179.366" stroke="#083344" stroke-width="1.71368" stroke-miterlimit="10" stroke-linecap="round" stroke-linejoin="round"/>
<path d="M226.376 267.946C224.669 271.55 222.229 273.807 219.842 275.218C215.826 277.594 211.959 277.594 211.959 277.594V277.468L211.942 277.594C211.942 277.594 202.099 277.594 197.524 267.946C194.988 262.605 185.465 223.293 186.659 213.308C187.859 203.329 199.038 198.667 211.953 198.667C213.958 198.667 215.923 198.782 217.82 199.004C228.096 200.244 236.23 204.882 237.241 213.308C238.435 223.293 228.913 262.605 226.376 267.946Z" fill="#06B6D4"/>
<path d="M170.687 201.462C170.687 201.462 171.784 196.372 173.384 196.372C174.983 196.372 175.88 201.964 175.88 201.964C175.88 201.964 184.066 206.557 180.97 213.246C177.874 219.935 166.095 218.736 164.798 210.15C162.302 203.061 162.902 199.965 164.101 199.965C165.301 199.965 167.197 203.358 167.197 203.358L170.687 201.462Z" fill="#06B6D4"/>
<path d="M167.443 210.212C167.443 210.212 171.601 206.533 172.95 207.35C174.298 208.167 171.053 214.057 171.053 214.057" stroke="#083344" stroke-width="1.71368" stroke-miterlimit="10" stroke-linecap="round" stroke-linejoin="round"/>
<path d="M254.361 201.462C254.361 201.462 253.264 196.372 251.665 196.372C250.065 196.372 249.169 201.964 249.169 201.964C249.169 201.964 240.983 206.557 244.079 213.246C247.175 219.935 258.954 218.736 260.25 210.15C262.747 203.061 262.147 199.965 260.947 199.965C259.748 199.965 257.851 203.358 257.851 203.358L254.361 201.462Z" fill="#06B6D4"/>
<path d="M257.606 210.212C257.606 210.212 253.447 206.533 252.099 207.35C250.751 208.167 253.995 214.057 253.995 214.057" stroke="#083344" stroke-width="1.71368" stroke-miterlimit="10" stroke-linecap="round" stroke-linejoin="round"/>
<path d="M194.125 212.766L200.98 257.225C200.98 257.225 202.379 267.741 206.572 271.734" stroke="#083344" stroke-width="1.71368" stroke-miterlimit="10" stroke-linecap="round" stroke-linejoin="round"/>
<path d="M205.03 175.573C207.014 175.573 208.623 173.965 208.623 171.98C208.623 169.996 207.014 168.387 205.03 168.387C203.045 168.387 201.437 169.996 201.437 171.98C201.437 173.965 203.045 175.573 205.03 175.573Z" stroke="#083344" stroke-width="1.71368" stroke-miterlimit="10" stroke-linecap="round" stroke-linejoin="round"/>
<path d="M219.722 175.573C221.706 175.573 223.315 173.965 223.315 171.98C223.315 169.996 221.706 168.387 219.722 168.387C217.737 168.387 216.129 169.996 216.129 171.98C216.129 173.965 217.737 175.573 219.722 175.573Z" stroke="#083344" stroke-width="1.71368" stroke-miterlimit="10" stroke-linecap="round" stroke-linejoin="round"/>
<path d="M194.125 167.965C194.125 167.965 195.045 149.885 211.816 149.885" stroke="#083344" stroke-width="1.71368" stroke-miterlimit="10" stroke-linecap="round" stroke-linejoin="round"/>
<path d="M218.888 219.506H205.018C203.388 219.506 202.065 218.183 202.065 216.553V210.469C202.065 208.839 203.388 207.516 205.018 207.516H218.888C220.518 207.516 221.841 208.839 221.841 210.469L221.841 216.552C221.841 216.552 221.841 216.552 221.841 216.553C221.835 218.184 220.517 219.506 218.888 219.506Z" fill="#0891B2" stroke="#083344" stroke-width="0.571228"/>
<path d="M206.372 214.549C206.946 214.549 207.412 214.083 207.412 213.509C207.412 212.935 206.946 212.469 206.372 212.469C205.798 212.469 205.332 212.935 205.332 213.509C205.332 214.083 205.798 214.549 206.372 214.549Z" fill="#083344"/>
<path d="M211.953 214.548C212.527 214.548 212.993 214.083 212.993 213.508C212.993 212.934 212.527 212.469 211.953 212.469C211.379 212.469 210.913 212.934 210.913 213.508C210.913 214.083 211.379 214.548 211.953 214.548Z" fill="#083344"/>
<path d="M217.528 214.548C218.102 214.548 218.568 214.083 218.568 213.508C218.568 212.934 218.102 212.469 217.528 212.469C216.954 212.469 216.489 212.934 216.489 213.508C216.489 214.083 216.954 214.548 217.528 214.548Z" fill="#083344"/>
<path d="M100.758 181.098H30.6451C27.292 181.098 24.5729 178.379 24.5729 175.026V145.642C24.5729 142.289 27.292 139.57 30.6451 139.57H100.758C104.111 139.57 106.83 142.289 106.83 145.642V175.026C106.83 178.379 104.111 181.098 100.758 181.098Z" fill="#CFFAFE" stroke="#06B6D4" stroke-width="1.71368" stroke-miterlimit="10"/>
<path d="M73.7214 152.611H36.86C35.4019 152.611 34.2207 151.431 34.2152 149.966V149.521C34.2152 148.062 35.4012 146.876 36.86 146.876H73.7214C75.1802 146.876 76.3662 148.062 76.3662 149.521V149.966C76.3662 151.425 75.1802 152.611 73.7214 152.611Z" fill="#155E75" stroke="#155E75" stroke-width="0.571228"/>
<path d="M83.5293 152.897H94.1885C95.805 152.897 97.1189 151.583 97.1189 149.966V149.521C97.1189 147.904 95.805 146.59 94.1885 146.59H83.5293C81.9128 146.59 80.5989 147.904 80.5989 149.521V149.966C80.6047 151.589 81.9128 152.897 83.5293 152.897Z" stroke="#06B6D4" stroke-width="1.71368" stroke-miterlimit="10"/>
<path d="M36.86 174.078H94.5426C96.1592 174.078 97.473 172.764 97.473 171.147V170.702C97.473 169.085 96.1592 167.771 94.5426 167.771H36.86C35.2435 167.771 33.9296 169.085 33.9296 170.702V171.147C33.9353 172.764 35.2435 174.078 36.86 174.078Z" stroke="#06B6D4" stroke-width="1.71368" stroke-miterlimit="10"/>
<path d="M94.5426 163.201H59.1436C57.6844 163.201 56.4988 162.021 56.4988 160.557V160.111C56.4988 158.652 57.6848 157.466 59.1436 157.466H94.5426C96.0014 157.466 97.1874 158.652 97.1874 160.111V160.557C97.1874 162.015 96.0014 163.201 94.5426 163.201Z" fill="#155E75" stroke="#155E75" stroke-width="0.571228"/>
<path d="M50.7523 163.201H36.86C35.4019 163.201 34.2207 162.022 34.2152 160.556V160.111C34.2152 158.652 35.4012 157.466 36.86 157.466H50.7523C52.2111 157.466 53.3971 158.652 53.3971 160.111V160.557C53.3971 162.015 52.2111 163.201 50.7523 163.201Z" fill="#155E75" stroke="#155E75" stroke-width="0.571228"/>
<path d="M65.7014 201.537V184.897" stroke="#22D3EE" stroke-width="1.71368" stroke-miterlimit="10" stroke-dasharray="4 4"/>
<path d="M65.7014 206.295C67.1716 206.295 68.3633 205.103 68.3633 203.633C68.3633 202.163 67.1716 200.971 65.7014 200.971C64.2313 200.971 63.0395 202.163 63.0395 203.633C63.0395 205.103 64.2313 206.295 65.7014 206.295Z" fill="#CFFAFE" stroke="#22D3EE" stroke-width="1.71368" stroke-miterlimit="10"/>
<path d="M65.7014 132.857V93.4595" stroke="#22D3EE" stroke-width="1.71368" stroke-miterlimit="10" stroke-dasharray="4 4"/>
<path d="M65.7014 137.615C67.1716 137.615 68.3633 136.424 68.3633 134.953C68.3633 133.483 67.1716 132.292 65.7014 132.292C64.2313 132.292 63.0395 133.483 63.0395 134.953C63.0395 136.424 64.2313 137.615 65.7014 137.615Z" fill="#CFFAFE" stroke="#22D3EE" stroke-width="1.71368" stroke-miterlimit="10"/>
<path d="M348.694 192.516V93.3911" stroke="#22D3EE" stroke-width="1.71368" stroke-miterlimit="10" stroke-dasharray="4 4"/>
<path d="M348.694 197.275C350.164 197.275 351.356 196.083 351.356 194.613C351.356 193.142 350.164 191.951 348.694 191.951C347.224 191.951 346.032 193.142 346.032 194.613C346.032 196.083 347.224 197.275 348.694 197.275Z" fill="#CFFAFE" stroke="#22D3EE" stroke-width="1.71368" stroke-miterlimit="10"/>
<path d="M211.01 133.023V93.5913" stroke="#22D3EE" stroke-width="1.71368" stroke-miterlimit="10" stroke-dasharray="4 4"/>
<path d="M207.949 134.589L84.0322 93.1919" stroke="#22D3EE" stroke-width="1.71368" stroke-miterlimit="10" stroke-dasharray="4 4"/>
<path d="M215.403 134.588L352.367 92.7915" stroke="#22D3EE" stroke-width="1.71368" stroke-miterlimit="10" stroke-dasharray="4 4"/>
<path d="M211.01 137.782C212.481 137.782 213.672 136.59 213.672 135.12C213.672 133.65 212.481 132.458 211.01 132.458C209.54 132.458 208.349 133.65 208.349 135.12C208.349 136.59 209.54 137.782 211.01 137.782Z" fill="#CFFAFE" stroke="#22D3EE" stroke-width="1.71368" stroke-miterlimit="10"/>
<defs>
<linearGradient id="paint0_linear_79_3804" x1="168.305" y1="-6.84211" x2="240.851" y2="299.051" gradientUnits="userSpaceOnUse">
<stop stop-color="#06B6D4"/>
<stop offset="1" stop-color="#06B6D4" stop-opacity="0"/>
</linearGradient>
</defs>
</svg>
